<svg width="520" height="400" viewBox="0 0 520 400" fill="none" xmlns="http://www.w3.org/2000/svg">
<path d="M337.213 95.4048C372.856 104.559 422.817 68.0072 445.319 97.2889C467.772 126.506 420.994 165.829 419.699 202.739C418.635 233.071 444.938 260.239 438.562 289.904C431.494 322.782 414.353 359.058 383.378 371.708C352.276 384.41 323.749 383.215 291.034 375.657C264.402 369.504 225.609 392.624 204.108 375.657C182.855 358.885 185.482 284.277 171.508 261.02C153.651 231.3 107.537 209.656 115.549 175.875C123.659 141.682 177.961 146.891 204.108 123.576C227.377 102.828 227.291 55.5466 257.716 49.1072C288.297 42.6348 306.934 87.6282 337.213 95.4048Z" fill="#E4ECF4"/>
<path d="M20.6873 243.564C56.41 294.091 70.1729 335.327 56.526 399.088L304.979 398.698C293.852 356.982 219.157 324.368 201.424 266.755C176.086 184.435 203.692 81.7353 192.879 60.7047C181.581 38.7317 156.469 29.827 129.577 46.6694C102.685 63.5117 125.849 121.257 105.78 122.46C85.7107 123.663 93.7382 42.6593 69.2541 46.6694C44.77 50.6794 47.1783 105.217 53.199 127.673C59.2197 150.129 71.261 197.047 50.7907 201.86C30.3204 206.672 36.3411 168.576 20.6873 172.185C5.03354 175.794 -15.0354 193.037 20.6873 243.564Z" fill="#2C73FB"/>
<path d="M519.337 337.715C522.552 349.756 510.86 380.62 503.225 399.066C503.225 399.066 383.141 400.349 393.108 387.838C405.566 372.2 369.396 324.082 368.19 312.854C366.985 301.627 363.003 278.782 380.649 282.781C394.146 285.839 399.94 301.226 410.389 297.216C420.838 293.206 414.006 243.886 426.062 213.01C438.119 182.134 449.774 182.936 459.017 192.159C468.26 201.382 457.008 250.301 455.4 265.539C453.792 280.776 459.017 286.39 465.849 287.593C472.681 288.796 483.908 263.644 491.168 258.722C498.84 253.521 506.878 256.942 506.878 271.164C506.878 282.781 490.364 322.077 488.355 331.701C486.345 341.324 496.18 341.653 498.438 337.715C503.261 329.306 517.214 329.765 519.337 337.715Z" fill="#47DB99"/>
<path d="M148.94 398.274L87.7778 252.659H179.664L239.9 398.274H148.94Z" fill="#FAFAFA"/>
<path fill-rule="evenodd" clip-rule="evenodd" d="M179.616 251.847H86.9644L148.175 399.088H239.9L179.616 251.847ZM178.603 253.372L237.638 397.562H149.183L89.2404 253.372H178.603Z" fill="black"/>
<path d="M345.974 208.02L370.196 179.522C370.994 178.583 371.682 177.539 372.023 176.355C373.921 169.77 371.13 162.611 365.06 159.106L364.357 158.701C356.435 154.126 346.51 157.625 342.985 165.69L342.976 165.71C342.347 167.149 341.713 168.6 340.773 169.857L326.59 188.823L282.92 186.84C271.352 185.859 265.814 200.715 275.202 207.546C276.437 208.444 277.839 209.087 279.325 209.436L332.56 216.536C335.825 217.071 339.307 215.981 342.203 213.174C342.853 212.544 343.424 211.84 343.907 211.079C344.566 210.039 345.176 208.959 345.974 208.02Z" fill="white"/>
<path fill-rule="evenodd" clip-rule="evenodd" d="M327.329 190.388L282.82 188.366L282.79 188.364C272.765 187.513 267.965 200.389 276.102 206.309C277.152 207.073 278.342 207.624 279.604 207.931L332.784 215.023L332.807 215.027C335.544 215.475 338.551 214.584 341.138 212.076C341.702 211.53 342.197 210.92 342.616 210.26C342.736 210.07 342.86 209.869 342.99 209.66C343.506 208.824 344.098 207.867 344.809 207.03L369.031 178.531C369.757 177.678 370.296 176.825 370.554 175.932C372.26 170.014 369.75 163.58 364.295 160.431L363.593 160.025C356.475 155.915 347.553 159.057 344.386 166.303L344.347 166.391C343.738 167.785 343.044 169.374 341.997 170.773L327.329 190.388ZM279.325 209.436C277.839 209.087 276.437 208.444 275.202 207.546C265.814 200.715 271.352 185.859 282.92 186.84L326.59 188.823L340.773 169.857C341.713 168.6 342.347 167.149 342.976 165.71L342.985 165.69C346.51 157.625 356.435 154.126 364.357 158.701L365.06 159.106C371.13 162.611 373.921 169.77 372.023 176.355C371.682 177.539 370.994 178.583 370.196 179.522L345.974 208.02C345.346 208.76 344.834 209.587 344.322 210.414C344.184 210.636 344.047 210.859 343.907 211.079C343.424 211.84 342.853 212.544 342.203 213.174C339.307 215.981 335.825 217.071 332.56 216.536L279.325 209.436Z" fill="black"/>
<path d="M361.924 266.785C361.924 241.012 383.048 220.119 409.106 220.119C435.164 220.119 456.289 241.012 456.289 266.785V310.416H361.924V266.785Z" fill="white"/>
<path fill-rule="evenodd" clip-rule="evenodd" d="M454.754 308.899V266.785C454.754 241.85 434.317 221.637 409.106 221.637C383.896 221.637 363.458 241.85 363.458 266.785V308.899H454.754ZM409.106 220.119C383.048 220.119 361.924 241.012 361.924 266.785V310.416H456.289V266.785C456.289 241.012 435.164 220.119 409.106 220.119Z" fill="black"/>
<path d="M402.159 183.842C399.904 159.18 369.274 148.272 349.543 166.769C329.812 185.265 349.543 276.798 349.543 276.798C357.999 280.434 402.159 284.386 402.159 284.386C402.159 284.386 404.978 214.669 402.159 183.842Z" fill="black"/>
<path fill-rule="evenodd" clip-rule="evenodd" d="M401.461 183.862C399.269 159.927 369.398 149.131 350.014 167.274C347.675 169.463 345.875 172.78 344.545 176.987C343.217 181.188 342.375 186.221 341.915 191.78C340.994 202.898 341.607 216.025 342.84 228.607C344.073 241.183 345.923 253.186 347.465 262.047C348.236 266.477 348.93 270.12 349.431 272.654C349.682 273.922 349.884 274.912 350.023 275.585C350.077 275.843 350.121 276.054 350.155 276.216C352.295 277.04 356.375 277.905 361.433 278.74C366.756 279.62 373.067 280.453 379.122 281.174C385.176 281.895 390.966 282.502 395.243 282.93C397.381 283.143 399.141 283.312 400.366 283.427C400.815 283.469 401.192 283.504 401.49 283.531C401.51 283.014 401.538 282.255 401.574 281.28C401.645 279.314 401.745 276.471 401.855 272.963C402.075 265.945 402.34 256.269 402.517 245.629C402.87 224.336 402.868 199.232 401.461 183.862ZM402.214 284.365C402.969 284.396 402.969 284.396 402.969 284.396L402.977 284.195C402.982 284.062 402.99 283.864 403 283.604C403.02 283.085 403.049 282.321 403.085 281.337C403.157 279.368 403.256 276.522 403.366 273.011C403.587 265.989 403.852 256.304 404.028 245.655C404.381 224.37 404.383 199.187 402.966 183.721C400.64 158.317 369.137 147.292 348.987 166.152C346.384 168.588 344.477 172.18 343.105 176.522C341.73 180.869 340.874 186.025 340.408 191.652C339.476 202.905 340.098 216.137 341.335 228.758C342.573 241.384 344.43 253.427 345.976 262.312C346.749 266.755 347.445 270.41 347.948 272.954C348.2 274.227 348.403 275.221 348.543 275.899C348.614 276.237 348.668 276.497 348.705 276.672C348.724 276.759 348.738 276.825 348.747 276.87L348.762 276.937C348.762 276.937 348.762 276.938 349.501 276.775L348.762 276.938L348.845 277.324L349.205 277.479C351.422 278.43 355.869 279.371 361.189 280.25C366.544 281.134 372.881 281.971 378.946 282.693C385.011 283.415 390.811 284.024 395.094 284.452C397.236 284.665 398.999 284.834 400.226 284.95C400.84 285.007 401.32 285.051 401.646 285.081C401.81 285.096 401.935 285.108 402.019 285.115L402.139 285.126L402.145 285.127L402.146 285.127C402.147 285.127 402.147 285.127 402.214 284.365ZM402.214 284.365L402.146 285.127L402.936 285.197L402.969 284.396L402.214 284.365Z" fill="black"/>
<path d="M361.111 148.95C361.111 144.676 364.389 141.212 368.433 141.212H375.754C379.798 141.212 383.076 144.676 383.076 148.95V165.2C383.076 169.474 379.798 172.938 375.754 172.938H368.433C364.389 172.938 361.111 169.474 361.111 165.2V148.95Z" fill="white"/>
<path fill-rule="evenodd" clip-rule="evenodd" d="M375.754 142.76H368.433C365.198 142.76 362.576 145.531 362.576 148.95V165.2C362.576 168.619 365.198 171.39 368.433 171.39H375.754C378.989 171.39 381.611 168.619 381.611 165.2V148.95C381.611 145.531 378.989 142.76 375.754 142.76ZM368.433 141.212C364.389 141.212 361.111 144.676 361.111 148.95V165.2C361.111 169.474 364.389 172.938 368.433 172.938H375.754C379.798 172.938 383.076 169.474 383.076 165.2V148.95C383.076 144.676 379.798 141.212 375.754 141.212H368.433Z" fill="black"/>
<path d="M382.262 159.108L361.111 149.171L381.362 144.465L382.262 149.694V159.108Z" fill="black"/>
<path d="M342.448 105.605C344.755 85.4851 358.562 78.7436 373.698 80.4552C419.852 85.6749 396.503 127.105 391.005 138.346C384.043 152.582 365.044 153.531 352.063 147.362C339.082 141.193 339.563 130.754 342.448 105.605Z" fill="white"/>
<path fill-rule="evenodd" clip-rule="evenodd" d="M353.27 84.1767C358.956 80.0456 366.215 78.7743 373.723 79.6459L373.638 80.4112L373.723 79.6459C385.085 80.965 392.308 84.5877 396.587 89.5822C400.87 94.583 402.097 100.835 401.721 107.178C401.049 118.53 395.214 130.471 392.119 136.806C391.773 137.513 391.462 138.151 391.195 138.71C387.67 146.109 381.101 150.027 373.857 151.306C366.627 152.583 358.672 151.246 352.213 148.095C348.971 146.513 346.521 144.634 344.739 142.273C342.955 139.911 341.876 137.113 341.303 133.754C340.167 127.089 341.008 118.057 342.411 105.504C343.555 95.2609 347.569 88.3193 353.27 84.1767ZM354.143 85.4324C348.858 89.2723 345.014 95.7776 343.907 105.679C342.497 118.306 341.696 127.09 342.787 133.49C343.328 136.663 344.33 139.211 345.931 141.332C347.534 143.455 349.773 145.198 352.861 146.705C359.063 149.73 366.703 151.006 373.601 149.788C380.484 148.573 386.575 144.89 389.841 138.036C390.114 137.463 390.429 136.817 390.777 136.105C393.885 129.734 399.565 118.094 400.218 107.085C400.578 100.997 399.393 95.1957 395.453 90.5973C391.509 85.9926 384.698 82.4704 373.553 81.1765C366.299 80.3344 359.444 81.581 354.143 85.4324Z" fill="black"/>
<path d="M373.388 80.4275C418.045 85.6662 395.454 127.247 390.134 138.53C389.039 140.851 387.823 142.821 386.188 144.465C380.141 143.036 383.397 126.147 386.654 126.624C389.91 127.1 392.236 119.004 390.84 115.67C389.724 113.003 386.654 114.559 385.258 115.67C386.343 111.225 384.514 102.049 368.512 100.906C352.51 99.7632 347.945 93.6652 349.65 89.2202C355.392 82.1564 364.062 79.3335 373.388 80.4275Z" fill="black"/>
<path fill-rule="evenodd" clip-rule="evenodd" d="M348.658 88.6293C354.698 81.4158 363.753 78.5117 373.45 79.6161C384.925 80.9229 392.219 84.5124 396.539 89.4592C400.862 94.4097 402.099 100.598 401.72 106.874C401.042 118.113 395.153 129.936 392.028 136.21C391.679 136.911 391.364 137.543 391.095 138.097C389.959 140.435 388.676 142.464 386.928 144.171L386.627 144.465L386.214 144.37C384.278 143.926 383.198 142.294 382.662 140.424C382.122 138.541 382.069 136.232 382.312 134.033C382.555 131.83 383.103 129.666 383.822 128.059C384.18 127.261 384.599 126.555 385.079 126.053C385.549 125.561 386.197 125.149 386.971 125.259C387.441 125.326 387.974 125.114 388.553 124.475C389.128 123.84 389.648 122.881 390.042 121.76C390.434 120.647 390.686 119.421 390.756 118.286C390.826 117.138 390.706 116.153 390.416 115.481C390.197 114.972 389.915 114.73 389.642 114.609C389.35 114.481 388.976 114.451 388.522 114.53C387.594 114.692 386.574 115.27 385.915 115.78L384.16 117.136L384.697 115.004C385.201 112.998 385.033 109.882 382.839 107.137C380.652 104.401 376.352 101.909 368.346 101.353C360.135 100.784 354.734 98.9756 351.585 96.6553C348.407 94.3131 347.509 91.4439 348.534 88.8505L348.579 88.7374L348.658 88.6293ZM349.878 89.4384C349.231 91.2183 349.779 93.436 352.504 95.4446C355.316 97.5169 360.379 99.2854 368.453 99.8453C376.731 100.419 381.504 103.024 384.044 106.201C386.028 108.684 386.586 111.441 386.446 113.665C387.006 113.385 387.628 113.151 388.254 113.041C388.901 112.928 389.609 112.939 390.268 113.229C390.944 113.527 391.479 114.081 391.828 114.89C392.248 115.865 392.364 117.114 392.287 118.378C392.209 119.655 391.928 121.017 391.492 122.256C391.058 123.487 390.453 124.646 389.697 125.481C388.944 126.313 387.939 126.924 386.752 126.755C386.698 126.748 386.517 126.754 386.196 127.09C385.884 127.416 385.549 127.948 385.226 128.67C384.584 130.103 384.067 132.11 383.837 134.197C383.606 136.287 383.671 138.384 384.138 140.013C384.552 141.458 385.233 142.393 386.169 142.774C387.591 141.297 388.695 139.538 389.712 137.444C389.987 136.877 390.305 136.237 390.656 135.532C393.794 129.223 399.53 117.692 400.189 106.785C400.553 100.751 399.355 95.0014 395.377 90.4453C391.395 85.8853 384.521 82.3988 373.273 81.1178C364.033 80.0655 355.525 82.7646 349.878 89.4384Z" fill="black"/>
<path fill-rule="evenodd" clip-rule="evenodd" d="M354.257 87.5794C354.648 87.742 354.836 88.197 354.677 88.5957C354.461 89.1351 354.441 89.7176 354.667 90.3179C354.897 90.9286 355.4 91.6028 356.301 92.2586C358.117 93.5791 361.433 94.7347 366.785 95.101C372.326 95.4801 375.578 97.2038 377.329 99.3665C379.078 101.526 379.23 104 378.81 105.648C378.704 106.065 378.286 106.315 377.877 106.207C377.467 106.098 377.222 105.673 377.328 105.256C377.642 104.022 377.542 102.08 376.148 100.358C374.756 98.6404 371.973 97.0186 366.683 96.6566C361.204 96.2817 357.56 95.0897 355.411 93.5273C354.331 92.7416 353.6 91.8406 353.237 90.876C352.87 89.9011 352.898 88.9086 353.259 88.0069C353.418 87.6082 353.865 87.4168 354.257 87.5794Z" fill="white"/>
<path d="M357.856 109.893C357.856 111.466 357.31 112.74 356.636 112.74C355.962 112.74 355.416 111.466 355.416 109.893C355.416 108.321 355.962 107.046 356.636 107.046C357.31 107.046 357.856 108.321 357.856 109.893Z" fill="black"/>
<path fill-rule="evenodd" clip-rule="evenodd" d="M361.418 127.43C361.813 127.58 362.02 128.045 361.88 128.468C361.621 129.25 361.046 130.379 360.133 131.324C359.21 132.279 357.908 133.077 356.229 133.077C353.178 133.077 351.323 131.798 350.701 130.963C350.439 130.612 350.493 130.1 350.821 129.82C351.149 129.54 351.626 129.598 351.888 129.949C352.164 130.319 353.538 131.45 356.229 131.45C357.422 131.45 358.364 130.893 359.078 130.153C359.803 129.404 360.259 128.498 360.449 127.925C360.589 127.501 361.023 127.28 361.418 127.43Z" fill="black"/>
<path d="M337.52 117.418L347.088 107.046L348.095 120.875L337.52 117.418Z" fill="white"/>
<path fill-rule="evenodd" clip-rule="evenodd" d="M347.851 107.244C348.161 107.519 348.176 107.98 347.884 108.273L339.447 116.74L347.58 119.461C347.982 119.595 348.192 120.011 348.05 120.39C347.907 120.769 347.467 120.967 347.066 120.833L336.705 117.367L346.762 107.275C347.054 106.982 347.541 106.968 347.851 107.244Z" fill="black"/>
<path fill-rule="evenodd" clip-rule="evenodd" d="M392.99 90.0373C393.135 90.1264 393.279 90.2151 393.423 90.3027C393.783 90.5225 393.897 90.993 393.678 91.3535C393.458 91.714 392.987 91.8281 392.627 91.6083C392.484 91.5209 392.342 91.4342 392.202 91.3485C390.957 90.5859 389.848 89.9065 388.809 89.5488C387.702 89.1677 386.824 89.2022 386.024 89.8371C385.373 90.3527 385.023 91.4566 385.187 93.0852C385.346 94.67 385.981 96.5418 386.995 98.2827C389.057 101.824 392.418 104.437 396.078 103.55C396.799 103.375 397.216 102.995 397.448 102.516C397.694 102.009 397.766 101.319 397.625 100.512C397.342 98.8878 396.246 97.067 394.721 96.0092C393.941 95.4679 393.243 95.1953 392.715 95.1217C392.175 95.0467 391.926 95.1848 391.829 95.2926C391.735 95.3969 391.594 95.684 391.76 96.3483C391.924 97.0062 392.367 97.9138 393.24 99.0607C393.495 99.3968 393.43 99.8765 393.094 100.132C392.758 100.388 392.278 100.323 392.023 99.9864C391.081 98.7489 390.509 97.6521 390.276 96.7183C390.045 95.7909 390.126 94.8991 390.693 94.2696C391.256 93.6435 392.106 93.4931 392.925 93.6072C393.755 93.7227 394.676 94.1169 395.592 94.7526C397.462 96.049 398.78 98.2321 399.132 100.249C399.308 101.263 399.251 102.303 398.824 103.184C398.383 104.093 397.581 104.758 396.438 105.036C391.763 106.169 387.845 102.781 385.674 99.0522C384.571 97.1582 383.851 95.0782 383.665 93.2384C383.484 91.4424 383.799 89.649 385.074 88.6388C386.424 87.5687 387.904 87.62 389.307 88.1029C390.516 88.5192 391.778 89.2937 392.99 90.0373Z" fill="white"/>
<path d="M388.517 236.152L410.042 185.656C413.036 178.631 410.315 170.475 403.701 166.657L402.999 166.251C394.373 161.271 383.373 165.861 380.844 175.496L370.336 215.539L314.109 210.826C302.541 209.845 297.004 224.701 306.392 231.532C307.627 232.43 309.028 233.073 310.514 233.422L376.306 243.252C379.572 243.787 383.054 242.697 385.949 239.89C387.045 238.827 387.918 237.556 388.517 236.152Z" fill="white"/>
<path fill-rule="evenodd" clip-rule="evenodd" d="M371.489 217.17L313.98 212.35C303.954 211.499 299.155 224.375 307.291 230.295C308.345 231.062 309.539 231.614 310.805 231.92L376.543 241.741L376.553 241.743C379.29 242.191 382.298 241.3 384.885 238.792C385.835 237.871 386.592 236.769 387.111 235.552L408.635 185.056C411.327 178.743 408.881 171.413 402.937 167.981L402.235 167.576C394.482 163.099 384.596 167.224 382.323 175.884L371.489 217.17ZM310.514 233.422C309.028 233.073 307.627 232.43 306.392 231.532C297.004 224.701 302.541 209.845 314.109 210.826L370.336 215.539L380.844 175.496C383.373 165.861 394.373 161.271 402.999 166.251L403.701 166.657C410.315 170.475 413.036 178.631 410.042 185.656L388.517 236.152C387.918 237.556 387.045 238.827 385.949 239.89C383.054 242.697 379.572 243.787 376.306 243.252L310.514 233.422Z" fill="black"/>
<path fill-rule="evenodd" clip-rule="evenodd" d="M160.38 18.3698L226.602 61.133L141.62 89.298L160.38 18.3698ZM143.821 86.9578L223.091 60.6858L161.319 20.7968L143.821 86.9578Z" fill="black"/>
<path fill-rule="evenodd" clip-rule="evenodd" d="M481.913 153.514C501.975 153.514 518.212 137.429 518.212 117.621C518.212 97.8121 501.975 81.7276 481.913 81.7276C461.851 81.7276 445.614 97.8121 445.614 117.621C445.614 137.429 461.851 153.514 481.913 153.514ZM481.913 155.041C502.805 155.041 519.74 138.287 519.74 117.621C519.74 96.9539 502.805 80.2002 481.913 80.2002C461.022 80.2002 444.086 96.9539 444.086 117.621C444.086 138.287 461.022 155.041 481.913 155.041Z" fill="black"/>
<path d="M156.111 65.5577C156.111 69.6012 152.651 72.8791 148.382 72.8791C144.114 72.8791 140.654 69.6012 140.654 65.5577C140.654 61.5142 144.114 58.2363 148.382 58.2363C152.651 58.2363 156.111 61.5142 156.111 65.5577Z" fill="#FAFAFA"/>
<path fill-rule="evenodd" clip-rule="evenodd" d="M364.403 213.243C364.533 212.902 364.951 212.718 365.339 212.831L371.994 214.784C372.382 214.897 372.591 215.266 372.462 215.607C372.333 215.948 371.914 216.132 371.527 216.018L364.871 214.066C364.484 213.952 364.274 213.584 364.403 213.243Z" fill="black"/>
<path fill-rule="evenodd" clip-rule="evenodd" d="M300.714 251.847H166.686L217.319 373.057H351.348L300.714 251.847ZM299.701 253.362L349.068 371.542H218.332L168.965 253.362H299.701Z" fill="black"/>
<path fill-rule="evenodd" clip-rule="evenodd" d="M212.242 234.762H275.694V245.337H212.242V234.762ZM213.771 236.389V243.71H274.165V236.389H213.771Z" fill="black"/>
<path d="M143.096 246.966V178.633H239.087V246.966H143.096Z" fill="white"/>
<path fill-rule="evenodd" clip-rule="evenodd" d="M141.467 178.633H239.899V247.779H141.467V178.633ZM143.005 180.153V246.26H238.361V180.153H143.005Z" fill="black"/>
<path d="M481.506 368.988H205.382C188.952 368.988 175.634 382.464 175.634 399.087H481.506V368.988Z" fill="#FF4B78"/>
<path fill-rule="evenodd" clip-rule="evenodd" d="M175.672 397.544C175.647 398.055 175.634 398.57 175.634 399.087H481.506V368.988H205.382C189.464 368.988 176.466 381.638 175.672 397.544ZM177.2 397.544C177.992 382.491 190.307 370.532 205.382 370.532H479.98V397.544H177.2Z" fill="#FF4B78"/>
<path fill-rule="evenodd" clip-rule="evenodd" d="M86.9629 146.906H147.202C147.629 146.906 147.975 147.256 147.975 147.687C147.975 148.118 147.629 148.467 147.202 148.467H88.5075V203.884C88.5075 204.315 88.1617 204.664 87.7352 204.664C87.3087 204.664 86.9629 204.315 86.9629 203.884V146.906Z" fill="black"/>
<path fill-rule="evenodd" clip-rule="evenodd" d="M221.418 125.173C221.73 124.871 222.245 124.863 222.568 125.155L246.973 147.224C247.296 147.517 247.305 147.998 246.993 148.301C246.68 148.603 246.165 148.611 245.842 148.319L221.438 126.25C221.115 125.957 221.106 125.476 221.418 125.173Z" fill="black"/>
<path fill-rule="evenodd" clip-rule="evenodd" d="M253.137 111.785C253.559 111.785 253.901 112.128 253.901 112.55L253.901 143.916C253.901 144.338 253.559 144.681 253.137 144.681C252.714 144.681 252.372 144.338 252.372 143.916L252.372 112.55C252.372 112.128 252.714 111.785 253.137 111.785Z" fill="black"/>
<path d="M76.3887 137.958H99.1664V159.109H76.3887V137.958Z" fill="#FAFAFA"/>
<path fill-rule="evenodd" clip-rule="evenodd" d="M97.6479 139.469H77.9072V157.598H97.6479V139.469ZM76.3887 137.958V159.109H99.1664V137.958H76.3887Z" fill="black"/>
<path d="M376.566 376.761C376.566 369.773 382.406 364.108 389.61 364.108H431.042C438.246 364.108 444.086 369.773 444.086 376.761V399.088H376.566V376.761Z" fill="white"/>
<path fill-rule="evenodd" clip-rule="evenodd" d="M431.042 365.597H389.61C383.254 365.597 378.101 370.595 378.101 376.761V397.6H442.552V376.761C442.552 370.595 437.399 365.597 431.042 365.597ZM389.61 364.108C382.406 364.108 376.566 369.773 376.566 376.761V399.088H444.086V376.761C444.086 369.773 438.246 364.108 431.042 364.108H389.61Z" fill="black"/>
<path d="M456.289 315.831C456.289 323.174 450.45 329.128 443.247 329.128L374.967 329.128C367.764 329.128 361.924 323.174 361.924 315.83L361.924 308.791L456.289 308.791L456.289 315.831Z" fill="white"/>
<path fill-rule="evenodd" clip-rule="evenodd" d="M374.967 327.564L443.247 327.564C449.602 327.564 454.755 322.31 454.755 315.831L454.755 310.355L363.459 310.355L363.459 315.83C363.459 322.31 368.611 327.564 374.967 327.564ZM443.247 329.128C450.45 329.128 456.289 323.174 456.289 315.831L456.289 308.791L361.924 308.791L361.924 315.83C361.924 323.174 367.764 329.128 374.967 329.128L443.247 329.128Z" fill="black"/>
<path d="M405.852 332.257C405.852 329.984 407.673 328.141 409.919 328.141C412.165 328.141 413.986 329.984 413.986 332.257V365.561H405.852V332.257Z" fill="white"/>
<path fill-rule="evenodd" clip-rule="evenodd" d="M412.507 364.064V332.257C412.507 330.81 411.349 329.637 409.919 329.637C408.489 329.637 407.331 330.81 407.331 332.257V364.064H412.507ZM409.919 328.141C407.673 328.141 405.852 329.984 405.852 332.257V365.561H413.986V332.257C413.986 329.984 412.165 328.141 409.919 328.141Z" fill="black"/>
<path d="M285.862 219.122C286.616 212.791 292.358 208.27 298.688 209.023L314.926 210.956C321.256 211.709 325.777 217.452 325.023 223.783C324.27 230.113 318.528 234.634 312.197 233.881L295.96 231.948C289.63 231.195 285.109 225.452 285.862 219.122Z" fill="white"/>
<path fill-rule="evenodd" clip-rule="evenodd" d="M314.745 212.474L298.508 210.542C293.016 209.888 288.034 213.81 287.381 219.302C286.727 224.794 290.649 229.776 296.141 230.43L312.378 232.363C317.87 233.016 322.851 229.094 323.505 223.602C324.159 218.11 320.237 213.128 314.745 212.474ZM298.688 209.023C292.358 208.27 286.616 212.791 285.862 219.122C285.109 225.452 289.63 231.195 295.96 231.948L312.197 233.881C318.528 234.634 324.27 230.113 325.023 223.783C325.777 217.452 321.256 211.709 314.926 210.956L298.688 209.023Z" fill="black"/>
<path d="M284.234 206.052C284.981 204.565 286.578 203.706 288.23 203.903C290.831 204.212 292.415 206.921 291.41 209.34L288.802 215.618C288.536 216.259 288.359 216.933 288.277 217.622L287.858 221.147C287.597 223.338 285.609 224.903 283.418 224.642C281.227 224.381 279.662 222.394 279.923 220.202L280.466 215.639L280.6 214.506C280.726 213.45 281.035 212.423 281.512 211.473L284.234 206.052Z" fill="white"/>
<path fill-rule="evenodd" clip-rule="evenodd" d="M281.441 220.383C281.28 221.736 282.246 222.963 283.599 223.124C284.951 223.285 286.178 222.319 286.339 220.966L286.759 217.441C286.857 216.613 287.07 215.802 287.39 215.032L289.998 208.753C290.614 207.271 289.643 205.611 288.049 205.421C287.037 205.301 286.058 205.827 285.6 206.738L282.878 212.159C282.48 212.951 282.223 213.807 282.119 214.687L281.441 220.383ZM288.23 203.903C286.578 203.706 284.981 204.565 284.234 206.052L281.512 211.473C281.035 212.423 280.726 213.45 280.6 214.506L279.923 220.202C279.662 222.394 281.227 224.381 283.418 224.642C285.609 224.903 287.597 223.338 287.858 221.147L288.277 217.622C288.359 216.933 288.536 216.259 288.802 215.618L291.41 209.34C292.415 206.921 290.831 204.212 288.23 203.903Z" fill="black"/>
<path d="M287.17 208.135C287.453 205.761 289.606 204.066 291.98 204.348C294.354 204.631 296.049 206.785 295.766 209.159L294.743 217.755C294.461 220.129 292.307 221.825 289.934 221.542C287.56 221.26 285.865 219.106 286.147 216.732L287.17 208.135Z" fill="white"/>
<path fill-rule="evenodd" clip-rule="evenodd" d="M293.225 217.575L294.248 208.978C294.431 207.442 293.334 206.05 291.799 205.867C290.264 205.684 288.871 206.781 288.688 208.316L287.665 216.913C287.483 218.448 288.579 219.841 290.114 220.024C291.65 220.207 293.042 219.11 293.225 217.575ZM291.98 204.348C289.606 204.066 287.453 205.761 287.17 208.135L286.147 216.732C285.865 219.106 287.56 221.26 289.934 221.542C292.307 221.825 294.461 220.129 294.743 217.755L295.766 209.159C296.049 206.785 294.354 204.631 291.98 204.348Z" fill="black"/>
<path d="M291.889 209.181C292.203 206.544 294.595 204.66 297.233 204.974C299.87 205.288 301.754 207.68 301.44 210.318L300.531 217.96C300.217 220.598 297.824 222.481 295.187 222.168C292.549 221.854 290.665 219.461 290.979 216.823L291.889 209.181Z" fill="white"/>
<path fill-rule="evenodd" clip-rule="evenodd" d="M299.012 217.779L299.922 210.137C300.136 208.338 298.851 206.706 297.052 206.492C295.253 206.278 293.621 207.563 293.407 209.362L292.498 217.004C292.283 218.803 293.568 220.435 295.367 220.649C297.166 220.863 298.798 219.578 299.012 217.779ZM297.233 204.974C294.595 204.66 292.203 206.544 291.889 209.181L290.979 216.823C290.665 219.461 292.549 221.854 295.187 222.168C297.824 222.481 300.217 220.598 300.531 217.96L301.44 210.318C301.754 207.68 299.87 205.288 297.233 204.974Z" fill="black"/>
<path d="M297.676 209.386C297.958 207.012 300.112 205.317 302.486 205.599C304.859 205.882 306.555 208.036 306.272 210.409L305.249 219.006C304.967 221.38 302.813 223.076 300.44 222.793C298.066 222.511 296.37 220.357 296.653 217.983L297.676 209.386Z" fill="white"/>
<path fill-rule="evenodd" clip-rule="evenodd" d="M303.731 218.826L304.754 210.229C304.937 208.693 303.84 207.301 302.305 207.118C300.77 206.935 299.377 208.032 299.194 209.567L298.171 218.164C297.989 219.699 299.085 221.092 300.62 221.275C302.155 221.458 303.548 220.361 303.731 218.826ZM302.486 205.599C300.112 205.317 297.958 207.012 297.676 209.386L296.653 217.983C296.37 220.357 298.066 222.511 300.44 222.793C302.813 223.076 304.967 221.38 305.249 219.006L306.272 210.409C306.555 208.036 304.859 205.882 302.486 205.599Z" fill="black"/>
<path d="M302.395 210.432C302.708 207.795 305.101 205.911 307.739 206.225C310.376 206.539 312.26 208.931 311.946 211.569L311.037 219.211C310.723 221.849 308.33 223.732 305.692 223.418C303.055 223.105 301.171 220.712 301.485 218.074L302.395 210.432Z" fill="white"/>
<path fill-rule="evenodd" clip-rule="evenodd" d="M309.518 219.03L310.428 211.388C310.642 209.589 309.357 207.957 307.558 207.743C305.759 207.529 304.127 208.814 303.913 210.613L303.003 218.255C302.789 220.054 304.074 221.686 305.873 221.9C307.672 222.114 309.304 220.829 309.518 219.03ZM307.739 206.225C305.101 205.911 302.708 207.795 302.395 210.432L301.485 218.074C301.171 220.712 303.055 223.105 305.692 223.418C308.33 223.732 310.723 221.849 311.037 219.211L311.946 211.569C312.26 208.931 310.376 206.539 307.739 206.225Z" fill="black"/>
<path d="M261.047 200.076C255.673 194.702 255.673 185.988 261.047 180.613L263.088 178.572C268.462 173.197 277.176 173.197 282.55 178.572L283.434 179.456C288.808 184.831 288.808 193.544 283.434 198.919L281.392 200.96C276.018 206.335 267.305 206.335 261.931 200.96L261.047 200.076Z" fill="white"/>
<path fill-rule="evenodd" clip-rule="evenodd" d="M264.169 179.653L262.128 181.695C257.351 186.472 257.351 194.218 262.128 198.995L263.012 199.879C267.789 204.656 275.534 204.656 280.311 199.879L282.353 197.838C287.129 193.06 287.129 185.315 282.353 180.537L281.468 179.653C276.691 174.876 268.946 174.876 264.169 179.653ZM261.047 180.613C255.673 185.988 255.673 194.702 261.047 200.076L261.931 200.96C267.305 206.335 276.018 206.335 281.392 200.96L283.434 198.919C288.808 193.544 288.808 184.831 283.434 179.456L282.55 178.572C277.176 173.197 268.462 173.197 263.088 178.572L261.047 180.613Z" fill="black"/>
<path d="M253.464 186.36C251.659 184.554 251.659 181.627 253.464 179.822C255.27 178.016 258.197 178.016 260.002 179.822L265.606 185.426C267.411 187.231 267.411 190.159 265.606 191.964C263.801 193.77 260.873 193.77 259.068 191.964L253.464 186.36Z" fill="white"/>
<path fill-rule="evenodd" clip-rule="evenodd" d="M264.525 186.507L258.921 180.903C257.713 179.695 255.754 179.695 254.545 180.903C253.337 182.111 253.337 184.07 254.545 185.279L260.149 190.883C261.358 192.091 263.317 192.091 264.525 190.883C265.733 189.675 265.733 187.716 264.525 186.507ZM253.464 179.822C251.659 181.627 251.659 184.554 253.464 186.36L259.068 191.964C260.873 193.77 263.801 193.77 265.606 191.964C267.411 190.159 267.411 187.231 265.606 185.426L260.002 179.822C258.197 178.016 255.27 178.016 253.464 179.822Z" fill="black"/>
<path d="M257.199 182.623C255.393 180.817 255.393 177.89 257.199 176.084C259.004 174.279 261.931 174.279 263.736 176.084L269.34 181.689C271.146 183.494 271.146 186.421 269.34 188.227C267.535 190.032 264.608 190.032 262.802 188.227L257.199 182.623Z" fill="white"/>
<path fill-rule="evenodd" clip-rule="evenodd" d="M268.259 182.77L262.655 177.166C261.447 175.957 259.488 175.957 258.28 177.166C257.072 178.374 257.072 180.333 258.28 181.541L263.884 187.146C265.092 188.354 267.051 188.354 268.259 187.146C269.467 185.937 269.467 183.978 268.259 182.77ZM257.199 176.084C255.393 177.89 255.393 180.817 257.199 182.623L262.802 188.227C264.608 190.032 267.535 190.032 269.34 188.227C271.146 186.421 271.146 183.494 269.34 181.689L263.736 176.084C261.931 174.279 259.004 174.279 257.199 176.084Z" fill="black"/>
<path d="M260.935 178.887C259.13 177.082 259.13 174.155 260.935 172.349C262.74 170.543 265.667 170.543 267.473 172.349L273.077 177.953C274.882 179.759 274.882 182.686 273.077 184.492C271.271 186.297 268.344 186.297 266.539 184.492L260.935 178.887Z" fill="white"/>
<path fill-rule="evenodd" clip-rule="evenodd" d="M271.995 179.035L266.392 173.43C265.183 172.222 263.224 172.222 262.016 173.43C260.808 174.639 260.808 176.598 262.016 177.806L267.62 183.41C268.828 184.619 270.787 184.619 271.995 183.41C273.204 182.202 273.204 180.243 271.995 179.035ZM260.935 172.349C259.13 174.155 259.13 177.082 260.935 178.887L266.539 184.492C268.344 186.297 271.271 186.297 273.077 184.492C274.882 182.686 274.882 179.759 273.077 177.953L267.473 172.349C265.667 170.543 262.74 170.543 260.935 172.349Z" fill="black"/>
<path d="M254.464 162.94C252.659 161.135 252.659 158.207 254.464 156.402C256.27 154.596 259.197 154.596 261.002 156.402L277.814 173.215C279.619 175.02 279.619 177.947 277.814 179.753C276.008 181.558 273.081 181.558 271.276 179.753L254.464 162.94Z" fill="white"/>
<path fill-rule="evenodd" clip-rule="evenodd" d="M276.733 174.296L259.921 157.483C258.713 156.275 256.754 156.275 255.545 157.483C254.337 158.691 254.337 160.65 255.545 161.859L272.357 178.672C273.565 179.88 275.524 179.88 276.733 178.672C277.941 177.463 277.941 175.504 276.733 174.296ZM254.464 156.402C252.659 158.207 252.659 161.135 254.464 162.94L271.276 179.753C273.081 181.558 276.008 181.558 277.814 179.753C279.619 177.947 279.619 175.02 277.814 173.215L261.002 156.402C259.197 154.596 256.27 154.596 254.464 156.402Z" fill="black"/>
<path d="M397.795 279.072L327.183 248.031C321.138 245.374 314.945 248.085 310.027 251.699L268.886 281.691C262.166 286.595 260.668 295.985 265.541 302.664C270.414 309.344 279.812 310.782 286.532 305.878L288.247 304.551L323.55 278.634L385.595 306.43C393.143 309.748 401.993 306.314 405.362 298.759C408.731 291.204 405.344 282.39 397.795 279.072Z" fill="black"/>
<path fill-rule="evenodd" clip-rule="evenodd" d="M321.937 308.352L298.866 348.434C294.65 355.76 285.302 358.265 277.987 354.029C270.672 349.793 268.161 340.42 272.378 333.094L297.791 288.943C297.928 288.704 298.071 288.47 298.219 288.241C300.238 282.187 305.951 277.826 312.687 277.83L391.268 277.881C399.695 277.886 406.53 284.722 406.535 293.149C406.54 301.575 399.714 308.402 391.288 308.397L321.937 308.352Z" fill="black"/>
<path fill-rule="evenodd" clip-rule="evenodd" d="M323.722 280.042C314.918 275.195 304.004 279.305 298.243 289.377L273.018 333.478C269.04 340.432 271.427 349.34 278.348 353.373C285.265 357.404 294.092 355.038 298.066 348.089L321.259 307.542L388.626 307.716C389.048 307.717 389.39 308.06 389.389 308.482C389.388 308.904 389.044 309.246 388.622 309.245L322.145 309.073L299.394 348.848C294.997 356.535 285.229 359.152 277.578 354.694C269.932 350.239 267.296 340.401 271.69 332.719L296.916 288.618C302.972 278.03 314.731 273.346 324.459 278.703C324.829 278.907 324.964 279.372 324.76 279.741C324.557 280.111 324.092 280.246 323.722 280.042Z" fill="black"/>
<path fill-rule="evenodd" clip-rule="evenodd" d="M322.611 279.091L385.356 308.716C392.99 312.253 401.94 308.592 405.347 300.541C408.755 292.489 405.329 283.095 397.695 279.559L326.285 246.476C320.172 243.644 313.909 246.532 308.936 250.385L267.329 282.349C260.533 287.576 259.018 297.584 263.946 304.703C268.874 311.821 278.379 313.355 285.175 308.128L286.909 306.713L322.611 279.091ZM284.231 306.924L285.964 305.511L322.418 277.307L385.995 307.325C385.997 307.325 385.999 307.326 386 307.327C392.804 310.475 400.853 307.244 403.944 299.941C407.048 292.607 403.898 284.12 397.057 280.95L325.646 247.867C320.357 245.417 314.745 247.819 309.866 251.598L309.862 251.602L268.256 283.566C262.116 288.289 260.729 297.372 265.198 303.828C269.633 310.234 278.137 311.597 284.231 306.924Z" fill="white"/>
<path d="M241.715 284.678C247.838 274.074 261.397 270.44 272.001 276.563L275.489 278.576C286.093 284.699 289.726 298.26 283.604 308.865L278.01 318.555L236.121 294.369L241.715 284.678Z" fill="#FF4B78"/>
<path fill-rule="evenodd" clip-rule="evenodd" d="M274.724 279.901L271.237 277.887C261.364 272.187 248.74 275.569 243.04 285.443L238.21 293.809L277.45 316.466L282.28 308.1C287.98 298.226 284.597 285.601 274.724 279.901ZM272.001 276.563C261.397 270.44 247.838 274.074 241.715 284.678L236.121 294.369L278.01 318.555L283.604 308.865C289.726 298.26 286.093 284.699 275.489 278.576L272.001 276.563Z" fill="#FF4B78"/>
<path fill-rule="evenodd" clip-rule="evenodd" d="M254.665 286.185C256.284 283.381 259.868 282.421 262.672 284.039L271.437 289.1C274.24 290.719 275.201 294.304 273.582 297.107C273.371 297.473 272.904 297.598 272.538 297.387C272.172 297.176 272.047 296.708 272.258 296.343C273.455 294.271 272.745 291.621 270.673 290.425L261.907 285.363C259.835 284.167 257.186 284.877 255.989 286.949C255.778 287.315 255.311 287.44 254.945 287.229C254.579 287.018 254.454 286.55 254.665 286.185Z" fill="black"/>
<path fill-rule="evenodd" clip-rule="evenodd" d="M257.59 283.057C259.081 280.475 262.382 279.59 264.964 281.081L276.207 287.573C278.789 289.064 279.674 292.365 278.183 294.947C277.972 295.313 277.504 295.438 277.139 295.227C276.773 295.016 276.648 294.548 276.859 294.182C277.927 292.332 277.293 289.966 275.443 288.897L264.199 282.405C262.349 281.337 259.983 281.971 258.914 283.821C258.703 284.187 258.236 284.312 257.87 284.101C257.504 283.89 257.379 283.422 257.59 283.057Z" fill="black"/>
<path d="M227.617 289.631C233.758 278.993 247.359 275.348 257.996 281.49L258.852 281.984C269.488 288.125 273.133 301.728 266.992 312.365L227.617 289.631Z" fill="white"/>
<path fill-rule="evenodd" clip-rule="evenodd" d="M258.087 283.308L257.232 282.814C247.771 277.352 235.793 280.202 229.753 289.099L266.384 310.249C271.068 300.569 267.547 288.77 258.087 283.308ZM267.711 311.015C272.816 300.602 269.043 287.868 258.852 281.984L257.996 281.49C247.804 275.605 234.891 278.705 228.426 288.332C228.144 288.753 227.874 289.185 227.617 289.631L266.992 312.365C267.249 311.92 267.489 311.47 267.711 311.015Z" fill="black"/>
<path d="M250.475 360.57C250.475 348.147 260.534 338.076 272.942 338.076L276.816 338.076C289.225 338.076 299.284 348.147 299.284 360.57L299.284 371.429L250.475 371.429L250.475 360.57Z" fill="#FF4B78"/>
<path fill-rule="evenodd" clip-rule="evenodd" d="M276.816 339.627L272.942 339.627C261.39 339.627 252.024 349.004 252.024 360.57L252.024 369.878L297.734 369.878L297.734 360.57C297.734 349.004 288.369 339.627 276.816 339.627ZM272.942 338.076C260.534 338.076 250.475 348.147 250.475 360.57L250.475 371.429L299.284 371.429L299.284 360.57C299.284 348.147 289.225 338.076 276.816 338.076L272.942 338.076Z" fill="#FF4B78"/>
<path fill-rule="evenodd" clip-rule="evenodd" d="M261.051 353.622C261.051 350.427 263.867 347.837 267.342 347.837L278.351 347.837C281.825 347.837 284.642 350.427 284.642 353.622C284.642 354.021 284.29 354.345 283.856 354.345C283.421 354.345 283.069 354.021 283.069 353.622C283.069 351.226 280.957 349.283 278.351 349.283L267.342 349.283C264.736 349.283 262.624 351.226 262.624 353.622C262.624 354.021 262.271 354.345 261.837 354.345C261.403 354.345 261.051 354.021 261.051 353.622Z" fill="black"/>
<path fill-rule="evenodd" clip-rule="evenodd" d="M262.678 349.465C262.678 346.32 265.145 343.771 268.188 343.771L281.572 343.771C284.615 343.771 287.082 346.32 287.082 349.465C287.082 349.914 286.73 350.278 286.295 350.278C285.86 350.278 285.508 349.914 285.508 349.465C285.508 347.219 283.746 345.397 281.572 345.397L268.188 345.397C266.015 345.397 264.252 347.219 264.252 349.465C264.252 349.914 263.9 350.278 263.465 350.278C263.03 350.278 262.678 349.914 262.678 349.465Z" fill="black"/>
<path d="M241.527 371.035C241.527 358.223 251.543 347.837 263.898 347.837C276.253 347.837 286.269 358.223 286.269 371.035L286.269 371.428L241.527 371.428L241.527 371.035Z" fill="white"/>
<path fill-rule="evenodd" clip-rule="evenodd" d="M286.241 369.855C286.26 370.246 286.269 370.639 286.269 371.035L286.269 371.428L241.527 371.428L241.527 371.035C241.527 370.639 241.537 370.246 241.556 369.855C242.148 357.592 251.925 347.837 263.898 347.837C275.872 347.837 285.649 357.592 286.241 369.855ZM243.075 369.855C243.665 358.461 252.762 349.41 263.898 349.41C275.034 349.41 284.131 358.461 284.722 369.855L243.075 369.855Z" fill="black"/>
<path fill-rule="evenodd" clip-rule="evenodd" d="M450.594 153.497C457.852 153.497 463.735 147.45 463.735 139.991C463.735 132.532 457.852 126.485 450.594 126.485C443.336 126.485 437.453 132.532 437.453 139.991C437.453 147.45 443.336 153.497 450.594 153.497ZM450.594 155.041C458.681 155.041 465.237 148.303 465.237 139.991C465.237 131.679 458.681 124.941 450.594 124.941C442.507 124.941 435.951 131.679 435.951 139.991C435.951 148.303 442.507 155.041 450.594 155.041Z" fill="black"/>
<path d="M167.947 253.474L86.9629 253.88L177.26 276.251L167.947 253.474Z" fill="black"/>
<path d="M357.855 242.897H66.6262V255.1H357.855V242.897Z" fill="white"/>
<path fill-rule="evenodd" clip-rule="evenodd" d="M68.159 244.423H356.323V253.575H68.159V244.423ZM357.855 242.897V255.1H66.6262V242.897H357.855Z" fill="black"/>
<path fill-rule="evenodd" clip-rule="evenodd" d="M99.9795 244.523C100.429 244.523 100.793 244.766 100.793 245.066L100.793 247.235C100.793 247.535 100.429 247.777 99.9795 247.777C99.5302 247.777 99.166 247.535 99.166 247.235L99.166 245.066C99.166 244.766 99.5302 244.523 99.9795 244.523Z" fill="black"/>
<path fill-rule="evenodd" clip-rule="evenodd" d="M94.2861 255.101C93.8369 255.101 93.4727 254.691 93.4727 254.185V248.694C93.4727 248.189 93.8369 247.779 94.2861 247.779C94.7354 247.779 95.0996 248.189 95.0996 248.694V254.185C95.0996 254.691 94.7354 255.101 94.2861 255.101Z" fill="black"/>
<path fill-rule="evenodd" clip-rule="evenodd" d="M81.6773 255.101C81.0033 255.101 80.457 254.691 80.457 254.185L80.457 248.694C80.457 248.189 81.0033 247.779 81.6773 247.779C82.3512 247.779 82.8975 248.189 82.8975 248.694L82.8975 254.185C82.8975 254.691 82.3512 255.101 81.6773 255.101Z" fill="black"/>
<path fill-rule="evenodd" clip-rule="evenodd" d="M75.5752 251.847C75.1259 251.847 74.7617 251.519 74.7617 251.115L74.7617 245.257C74.7617 244.853 75.1259 244.525 75.5752 244.525C76.0245 244.525 76.3887 244.853 76.3887 245.257L76.3887 251.115C76.3887 251.519 76.0245 251.847 75.5752 251.847Z" fill="black"/>
<path fill-rule="evenodd" clip-rule="evenodd" d="M127.233 255.101C127.008 255.101 126.826 254.691 126.826 254.185V248.694C126.826 248.189 127.008 247.779 127.233 247.779C127.458 247.779 127.64 248.189 127.64 248.694V254.185C127.64 254.691 127.458 255.101 127.233 255.101Z" fill="black"/>
<path fill-rule="evenodd" clip-rule="evenodd" d="M106.894 251.847C106.22 251.847 105.674 251.519 105.674 251.115L105.674 245.257C105.674 244.853 106.22 244.525 106.894 244.525C107.568 244.525 108.114 244.853 108.114 245.257L108.114 251.115C108.114 251.519 107.568 251.847 106.894 251.847Z" fill="black"/>
<path fill-rule="evenodd" clip-rule="evenodd" d="M87.3706 244.523C87.5952 244.523 87.7773 244.797 87.7773 245.134L87.7773 246.354C87.7773 246.691 87.5952 246.964 87.3706 246.964C87.146 246.964 86.9639 246.691 86.9639 246.354L86.9639 245.134C86.9639 244.797 87.146 244.523 87.3706 244.523Z" fill="black"/>
<path fill-rule="evenodd" clip-rule="evenodd" d="M130.485 255.101C130.26 255.101 130.078 254.691 130.078 254.185V248.694C130.078 248.189 130.26 247.779 130.485 247.779C130.71 247.779 130.892 248.189 130.892 248.694V254.185C130.892 254.691 130.71 255.101 130.485 255.101Z" fill="black"/>
<path fill-rule="evenodd" clip-rule="evenodd" d="M119.096 255.101C118.872 255.101 118.689 254.691 118.689 254.185L118.689 248.694C118.689 248.189 118.872 247.779 119.096 247.779C119.321 247.779 119.503 248.189 119.503 248.694L119.503 254.185C119.503 254.691 119.321 255.101 119.096 255.101Z" fill="black"/>
<path fill-rule="evenodd" clip-rule="evenodd" d="M123.571 244.523C124.021 244.523 124.385 244.797 124.385 245.134L124.385 246.354C124.385 246.691 124.021 246.964 123.571 246.964C123.122 246.964 122.758 246.691 122.758 246.354L122.758 245.134C122.758 244.797 123.122 244.523 123.571 244.523Z" fill="black"/>
<path fill-rule="evenodd" clip-rule="evenodd" d="M172.788 255.101C172.563 255.101 172.381 254.736 172.381 254.287L172.381 251.033C172.381 250.584 172.563 250.22 172.788 250.22C173.012 250.22 173.194 250.584 173.194 251.033L173.194 254.287C173.194 254.736 173.012 255.101 172.788 255.101Z" fill="black"/>
<path fill-rule="evenodd" clip-rule="evenodd" d="M178.483 244.523C179.157 244.523 179.703 244.842 179.703 245.235L179.703 249.506C179.703 249.899 179.157 250.218 178.483 250.218C177.809 250.218 177.263 249.899 177.263 249.506L177.263 245.235C177.263 244.842 177.809 244.523 178.483 244.523Z" fill="black"/>
<path fill-rule="evenodd" clip-rule="evenodd" d="M190.684 244.523C191.358 244.523 191.904 244.842 191.904 245.235L191.904 249.506C191.904 249.899 191.358 250.218 190.684 250.218C190.01 250.218 189.464 249.899 189.464 249.506L189.464 245.235C189.464 244.842 190.01 244.523 190.684 244.523Z" fill="black"/>
<path fill-rule="evenodd" clip-rule="evenodd" d="M198.82 246.964C199.044 246.964 199.227 247.328 199.227 247.777L199.227 254.285C199.227 254.735 199.044 255.099 198.82 255.099C198.595 255.099 198.413 254.735 198.413 254.285L198.413 247.777C198.413 247.328 198.595 246.964 198.82 246.964Z" fill="black"/>
<path fill-rule="evenodd" clip-rule="evenodd" d="M145.943 244.523C146.168 244.523 146.35 244.842 146.35 245.235L146.35 249.506C146.35 249.899 146.168 250.218 145.943 250.218C145.718 250.218 145.536 249.899 145.536 249.506L145.536 245.235C145.536 244.842 145.718 244.523 145.943 244.523Z" fill="black"/>
<path fill-rule="evenodd" clip-rule="evenodd" d="M165.872 246.964C166.321 246.964 166.686 247.328 166.686 247.777L166.686 254.285C166.686 254.735 166.321 255.099 165.872 255.099C165.423 255.099 165.059 254.735 165.059 254.285L165.059 247.777C165.059 247.328 165.423 246.964 165.872 246.964Z" fill="black"/>
<path fill-rule="evenodd" clip-rule="evenodd" d="M184.99 255.101C184.316 255.101 183.77 254.736 183.77 254.287L183.77 252.66C183.77 252.211 184.316 251.847 184.99 251.847C185.664 251.847 186.21 252.211 186.21 252.66L186.21 254.287C186.21 254.736 185.664 255.101 184.99 255.101Z" fill="black"/>
<path fill-rule="evenodd" clip-rule="evenodd" d="M141.875 244.523C142.549 244.523 143.096 244.842 143.096 245.235L143.096 249.506C143.096 249.899 142.549 250.218 141.875 250.218C141.202 250.218 140.655 249.899 140.655 249.506L140.655 245.235C140.655 244.842 141.202 244.523 141.875 244.523Z" fill="black"/>
<path fill-rule="evenodd" clip-rule="evenodd" d="M154.891 244.523C155.565 244.523 156.111 244.842 156.111 245.235L156.111 249.506C156.111 249.899 155.565 250.218 154.891 250.218C154.217 250.218 153.671 249.899 153.671 249.506L153.671 245.235C153.671 244.842 154.217 244.523 154.891 244.523Z" fill="black"/>
<path fill-rule="evenodd" clip-rule="evenodd" d="M149.196 255.101C148.971 255.101 148.789 254.736 148.789 254.287L148.789 252.66C148.789 252.211 148.971 251.847 149.196 251.847C149.42 251.847 149.603 252.211 149.603 252.66L149.603 254.287C149.603 254.736 149.42 255.101 149.196 255.101Z" fill="black"/>
<path fill-rule="evenodd" clip-rule="evenodd" d="M240.714 255.101C240.265 255.101 239.9 254.736 239.9 254.287L239.9 251.033C239.9 250.584 240.265 250.22 240.714 250.22C241.163 250.22 241.527 250.584 241.527 251.033L241.527 254.287C241.527 254.736 241.163 255.101 240.714 255.101Z" fill="black"/>
<path fill-rule="evenodd" clip-rule="evenodd" d="M246 244.523C246.674 244.523 247.221 244.842 247.221 245.235L247.221 249.506C247.221 249.899 246.674 250.218 246 250.218C245.327 250.218 244.78 249.899 244.78 249.506L244.78 245.235C244.78 244.842 245.327 244.523 246 244.523Z" fill="black"/>
<path fill-rule="evenodd" clip-rule="evenodd" d="M258.61 244.523C259.06 244.523 259.424 244.842 259.424 245.235L259.424 249.506C259.424 249.899 259.06 250.218 258.61 250.218C258.161 250.218 257.797 249.899 257.797 249.506L257.797 245.235C257.797 244.842 258.161 244.523 258.61 244.523Z" fill="black"/>
<path fill-rule="evenodd" clip-rule="evenodd" d="M265.525 246.964C265.75 246.964 265.932 247.328 265.932 247.777L265.932 254.285C265.932 254.735 265.75 255.099 265.525 255.099C265.3 255.099 265.118 254.735 265.118 254.285L265.118 247.777C265.118 247.328 265.3 246.964 265.525 246.964Z" fill="black"/>
<path fill-rule="evenodd" clip-rule="evenodd" d="M213.868 244.523C214.317 244.523 214.682 244.842 214.682 245.235L214.682 249.506C214.682 249.899 214.317 250.218 213.868 250.218C213.419 250.218 213.055 249.899 213.055 249.506L213.055 245.235C213.055 244.842 213.419 244.523 213.868 244.523Z" fill="black"/>
<path fill-rule="evenodd" clip-rule="evenodd" d="M232.579 246.964C233.028 246.964 233.393 247.328 233.393 247.777L233.393 254.285C233.393 254.735 233.028 255.099 232.579 255.099C232.13 255.099 231.766 254.735 231.766 254.285L231.766 247.777C231.766 247.328 232.13 246.964 232.579 246.964Z" fill="black"/>
<path fill-rule="evenodd" clip-rule="evenodd" d="M334.671 244.523C334.896 244.523 335.078 244.842 335.078 245.235L335.078 249.506C335.078 249.899 334.896 250.218 334.671 250.218C334.447 250.218 334.265 249.899 334.265 249.506L334.265 245.235C334.265 244.842 334.447 244.523 334.671 244.523Z" fill="black"/>
<path fill-rule="evenodd" clip-rule="evenodd" d="M346.468 244.523C346.917 244.523 347.281 244.842 347.281 245.235L347.281 249.506C347.281 249.899 346.917 250.218 346.468 250.218C346.018 250.218 345.654 249.899 345.654 249.506L345.654 245.235C345.654 244.842 346.018 244.523 346.468 244.523Z" fill="black"/>
<path fill-rule="evenodd" clip-rule="evenodd" d="M353.382 246.964C353.607 246.964 353.789 247.328 353.789 247.777L353.789 254.285C353.789 254.735 353.607 255.099 353.382 255.099C353.158 255.099 352.976 254.735 352.976 254.285L352.976 247.777C352.976 247.328 353.158 246.964 353.382 246.964Z" fill="black"/>
<path fill-rule="evenodd" clip-rule="evenodd" d="M253.324 255.101C252.65 255.101 252.104 254.736 252.104 254.287L252.104 252.66C252.104 252.211 252.65 251.847 253.324 251.847C253.998 251.847 254.544 252.211 254.544 252.66L254.544 254.287C254.544 254.736 253.998 255.101 253.324 255.101Z" fill="black"/>
<path fill-rule="evenodd" clip-rule="evenodd" d="M209.802 244.523C210.251 244.523 210.615 244.842 210.615 245.235L210.615 249.506C210.615 249.899 210.251 250.218 209.802 250.218C209.352 250.218 208.988 249.899 208.988 249.506L208.988 245.235C208.988 244.842 209.352 244.523 209.802 244.523Z" fill="black"/>
<path fill-rule="evenodd" clip-rule="evenodd" d="M222.003 244.523C222.452 244.523 222.816 244.842 222.816 245.235L222.816 249.506C222.816 249.899 222.452 250.218 222.003 250.218C221.554 250.218 221.189 249.899 221.189 249.506L221.189 245.235C221.189 244.842 221.554 244.523 222.003 244.523Z" fill="black"/>
<path fill-rule="evenodd" clip-rule="evenodd" d="M216.716 255.101C216.042 255.101 215.496 254.736 215.496 254.287L215.496 252.66C215.496 252.211 216.042 251.847 216.716 251.847C217.39 251.847 217.937 252.211 217.937 252.66L217.937 254.287C217.937 254.736 217.39 255.101 216.716 255.101Z" fill="black"/>
<path fill-rule="evenodd" clip-rule="evenodd" d="M297.251 244.523C297.476 244.523 297.658 244.766 297.658 245.066L297.658 247.235C297.658 247.535 297.476 247.777 297.251 247.777C297.027 247.777 296.845 247.535 296.845 247.235L296.845 245.066C296.845 244.766 297.027 244.523 297.251 244.523Z" fill="black"/>
<path fill-rule="evenodd" clip-rule="evenodd" d="M291.556 255.101C290.882 255.101 290.336 254.691 290.336 254.185L290.336 248.694C290.336 248.189 290.882 247.779 291.556 247.779C292.23 247.779 292.776 248.189 292.776 248.694L292.776 254.185C292.776 254.691 292.23 255.101 291.556 255.101Z" fill="black"/>
<path fill-rule="evenodd" clip-rule="evenodd" d="M278.542 255.101C278.317 255.101 278.135 254.691 278.135 254.185L278.135 248.694C278.135 248.189 278.317 247.779 278.542 247.779C278.766 247.779 278.948 248.189 278.948 248.694L278.948 254.185C278.948 254.691 278.766 255.101 278.542 255.101Z" fill="black"/>
<path fill-rule="evenodd" clip-rule="evenodd" d="M272.033 251.847C271.359 251.847 270.813 251.519 270.813 251.115L270.813 245.257C270.813 244.853 271.359 244.525 272.033 244.525C272.707 244.525 273.253 244.853 273.253 245.257L273.253 251.115C273.253 251.519 272.707 251.847 272.033 251.847Z" fill="black"/>
<path fill-rule="evenodd" clip-rule="evenodd" d="M323.283 255.101C322.609 255.101 322.063 254.691 322.063 254.185L322.063 248.694C322.063 248.189 322.609 247.779 323.283 247.779C323.957 247.779 324.503 248.189 324.503 248.694L324.503 254.185C324.503 254.691 323.957 255.101 323.283 255.101Z" fill="black"/>
<path fill-rule="evenodd" clip-rule="evenodd" d="M303.759 251.847C303.085 251.847 302.539 251.519 302.539 251.115L302.539 245.257C302.539 244.853 303.085 244.525 303.759 244.525C304.433 244.525 304.98 244.853 304.98 245.257L304.98 251.115C304.98 251.519 304.433 251.847 303.759 251.847Z" fill="black"/>
<path fill-rule="evenodd" clip-rule="evenodd" d="M285.049 244.523C285.723 244.523 286.27 244.797 286.27 245.134L286.27 246.354C286.27 246.691 285.723 246.964 285.049 246.964C284.375 246.964 283.829 246.691 283.829 246.354L283.829 245.134C283.829 244.797 284.375 244.523 285.049 244.523Z" fill="black"/>
<path fill-rule="evenodd" clip-rule="evenodd" d="M327.757 255.101C327.308 255.101 326.943 254.691 326.943 254.185L326.943 248.694C326.943 248.189 327.308 247.779 327.757 247.779C328.206 247.779 328.57 248.189 328.57 248.694L328.57 254.185C328.57 254.691 328.206 255.101 327.757 255.101Z" fill="black"/>
<path fill-rule="evenodd" clip-rule="evenodd" d="M315.148 255.101C314.474 255.101 313.928 254.691 313.928 254.185L313.928 248.694C313.928 248.189 314.474 247.779 315.148 247.779C315.822 247.779 316.368 248.189 316.368 248.694L316.368 254.185C316.368 254.691 315.822 255.101 315.148 255.101Z" fill="black"/>
<path fill-rule="evenodd" clip-rule="evenodd" d="M320.028 244.523C320.702 244.523 321.248 244.797 321.248 245.134L321.248 246.354C321.248 246.691 320.702 246.964 320.028 246.964C319.354 246.964 318.808 246.691 318.808 246.354L318.808 245.134C318.808 244.797 319.354 244.523 320.028 244.523Z" fill="black"/>
<path fill-rule="evenodd" clip-rule="evenodd" d="M190.668 203.104L199.896 208.345V218.171C199.896 218.593 199.554 218.935 199.131 218.935C198.709 218.935 198.367 218.593 198.367 218.171V209.235L190.668 204.862L182.968 209.235V218.171C182.968 218.593 182.626 218.935 182.204 218.935C181.782 218.935 181.439 218.593 181.439 218.171V208.345L190.668 203.104Z" fill="black"/>
<path fill-rule="evenodd" clip-rule="evenodd" d="M187.28 210.311C187.702 210.311 188.045 210.653 188.045 211.075V220.346L190.666 221.737L193.287 220.346V211.075C193.287 210.653 193.629 210.311 194.051 210.311C194.473 210.311 194.816 210.653 194.816 211.075V221.266L190.666 223.468L186.516 221.266V211.075C186.516 210.653 186.858 210.311 187.28 210.311Z" fill="black"/>
<path fill-rule="evenodd" clip-rule="evenodd" d="M336.169 20.9385C339.092 20.9385 341.461 18.5692 341.461 15.6465C341.461 12.7239 339.092 10.3546 336.169 10.3546C333.246 10.3546 330.877 12.7239 330.877 15.6465C330.877 18.5692 333.246 20.9385 336.169 20.9385ZM336.169 22.9151C340.183 22.9151 343.438 19.6609 343.438 15.6465C343.438 11.6322 340.183 8.37793 336.169 8.37793C332.155 8.37793 328.9 11.6322 328.9 15.6465C328.9 19.6609 332.155 22.9151 336.169 22.9151Z" fill="black"/>
<path d="M346.911 180.41L358.945 184.025L358.945 188.443L346.912 184.688L346.911 180.41Z" fill="white"/>
<path d="M346.91 180.409L350.513 181.486L350.513 185.813L346.899 184.7L346.91 180.409Z" fill="#FF4B78"/>
<path d="M347.852 182.129L349.267 182.552L349.267 184.251L347.848 183.814L347.852 182.129Z" fill="white"/>
<path fill-rule="evenodd" clip-rule="evenodd" d="M473.312 110.301C473.611 110.6 473.611 111.084 473.312 111.382L467.737 116.958L473.312 122.534C473.611 122.833 473.611 123.317 473.312 123.615C473.014 123.914 472.529 123.914 472.231 123.615L465.574 116.958L472.231 110.301C472.529 110.003 473.014 110.003 473.312 110.301Z" fill="black"/>
<path fill-rule="evenodd" clip-rule="evenodd" d="M490.579 123.616C490.28 123.317 490.28 122.833 490.579 122.535L496.154 116.959L490.579 111.383C490.28 111.084 490.28 110.6 490.579 110.302C490.877 110.003 491.361 110.003 491.66 110.302L498.316 116.959L491.66 123.616C491.361 123.914 490.877 123.914 490.579 123.616Z" fill="black"/>
<path fill-rule="evenodd" clip-rule="evenodd" d="M486.838 106.318C487.225 106.487 487.402 106.937 487.233 107.324L478.059 128.35C477.89 128.737 477.44 128.914 477.053 128.745C476.666 128.576 476.489 128.125 476.658 127.738L485.832 106.713C486.001 106.326 486.451 106.149 486.838 106.318Z" fill="black"/>
</svg>
