<svg width="520" height="381" viewBox="0 0 520 381" fill="none" xmlns="http://www.w3.org/2000/svg">
<path d="M164.438 356.459L193.577 356.113L193.923 367.875L169.106 368.008L164.438 356.459Z" fill="white"/>
<rect x="386.393" y="364.531" width="61.3485" height="3.36607" fill="white"/>
<path fill-rule="evenodd" clip-rule="evenodd" d="M154.632 237.652C154.632 271.788 182.303 299.461 216.436 299.461C250.569 299.461 278.239 271.788 278.239 237.652C278.239 203.517 250.569 175.844 216.436 175.844C182.303 175.844 154.632 203.517 154.632 237.652ZM216.436 139.487C162.224 139.487 118.277 183.437 118.277 237.652C118.277 291.868 162.224 335.818 216.436 335.818C270.647 335.818 314.594 291.868 314.594 237.652C314.594 183.437 270.647 139.487 216.436 139.487Z" fill="#E4ECF4"/>
<path d="M81.7813 110.984C56.7628 104.28 41.9157 78.5621 48.6194 53.5417C55.3231 28.5214 81.039 13.6732 106.057 20.3774C131.076 27.0815 145.923 52.7994 139.219 77.8197C132.516 102.84 106.8 117.688 81.7813 110.984Z" fill="#E4ECF4"/>
<path d="M48.6192 53.5415C51.3022 43.5275 57.2274 34.6846 65.4684 28.3953C73.7095 22.106 83.802 18.7246 94.1684 18.7797L93.9191 65.6805L48.6192 53.5415Z" fill="#2C73FB"/>
<path d="M187.533 105.129C172.173 101.013 163.058 85.2236 167.174 69.8622C171.289 54.5009 187.078 45.3848 202.438 49.5008C217.798 53.6169 226.914 69.4065 222.798 84.7678C218.682 100.129 202.894 109.245 187.533 105.129Z" fill="#F4E4E4"/>
<path d="M202.924 49.6358C210.265 51.7413 216.468 56.6769 220.17 63.3566L194.986 77.3152L202.924 49.6358Z" fill="#FF4B78"/>
<path d="M446.418 336.035C421.4 329.331 406.552 303.613 413.256 278.593C419.96 253.572 445.676 238.724 470.694 245.428C495.713 252.133 510.56 277.85 503.856 302.871C497.152 327.891 471.436 342.739 446.418 336.035Z" fill="#F4E4E4"/>
<path d="M446.418 336.035C437.458 333.634 429.412 328.631 423.296 321.656C417.18 314.682 413.27 306.051 412.059 296.854C410.848 287.657 412.392 278.308 416.494 269.988C420.597 261.668 427.074 254.752 435.107 250.114L458.556 290.732L446.418 336.035Z" fill="#FF4B78"/>
<path d="M353.753 335.714C338.551 331.64 329.53 316.013 333.603 300.81C337.676 285.607 353.302 276.585 368.504 280.659C383.706 284.733 392.727 300.359 388.654 315.562C384.581 330.765 368.955 339.788 353.753 335.714Z" fill="#E4ECF4"/>
<path d="M389.624 308.186C389.624 313.823 387.952 319.333 384.821 324.019C381.69 328.706 377.239 332.359 372.032 334.515C366.825 336.672 361.096 337.237 355.568 336.137C350.04 335.038 344.963 332.323 340.977 328.338C336.992 324.352 334.278 319.274 333.178 313.746C332.079 308.218 332.643 302.488 334.8 297.28C336.957 292.073 340.609 287.622 345.296 284.491C349.982 281.359 355.491 279.688 361.127 279.688V308.186H389.624Z" fill="#47DB99"/>
<path d="M195.35 353.092C195.35 348.273 199.256 344.366 204.075 344.366H209.892C214.71 344.366 218.617 348.273 218.617 353.092V358.91H195.35V353.092Z" fill="white"/>
<path fill-rule="evenodd" clip-rule="evenodd" d="M209.892 345.821H204.075C200.059 345.821 196.804 349.076 196.804 353.092V357.455H217.163V353.092C217.163 349.076 213.907 345.821 209.892 345.821ZM204.075 344.366C199.256 344.366 195.35 348.273 195.35 353.092V358.91H218.617V353.092C218.617 348.273 214.71 344.366 209.892 344.366H204.075Z" fill="black"/>
<path fill-rule="evenodd" clip-rule="evenodd" d="M109.78 168.876C114.661 164.668 121.335 165.955 124.232 171.61C126.987 176.988 125.275 184.31 120.388 187.872L98.5551 203.784L118.643 218.227C121.659 220.395 123.081 224.495 122.05 228.049C120.771 232.459 116.259 234.351 112.299 232.139L80.4019 214.311C75.6511 211.656 73.3937 205.389 75.3599 200.314C75.6104 199.667 75.9164 199.072 76.2693 198.532C76.8517 197.535 77.5888 196.63 78.4697 195.871L109.78 168.876Z" fill="white"/>
<path fill-rule="evenodd" clip-rule="evenodd" d="M96.0751 203.792L117.794 219.408C120.312 221.218 121.512 224.684 120.653 227.644C119.628 231.178 116.131 232.614 113.009 230.869L81.1113 213.042C76.9932 210.74 75.0115 205.239 76.7159 200.839L75.3599 200.314C73.3937 205.389 75.6511 211.656 80.4019 214.311L112.299 232.139C116.259 234.351 120.771 232.459 122.05 228.049C123.081 224.495 121.659 220.395 118.643 218.227L98.5551 203.784L120.388 187.872C125.275 184.31 126.987 176.988 124.232 171.61C121.335 165.955 114.661 164.668 109.78 168.876L78.4697 195.871C77.5888 196.63 76.8517 197.535 76.2693 198.532C75.9164 199.072 75.6104 199.667 75.3599 200.314L76.7159 200.839C76.9307 200.285 77.1909 199.78 77.4871 199.327L77.5067 199.297L77.5248 199.266C78.0314 198.399 78.6674 197.62 79.4192 196.972L110.73 169.978C112.856 168.145 115.301 167.559 117.478 167.973C119.655 168.388 121.682 169.823 122.938 172.273C125.369 177.02 123.836 183.56 119.531 186.697L96.0751 203.792Z" fill="black"/>
<path d="M112.75 177.179C114.582 157.396 139.471 148.646 155.503 163.483C171.536 178.321 155.503 251.748 155.503 251.748C148.632 254.665 112.75 257.835 112.75 257.835C112.75 257.835 110.459 201.909 112.75 177.179Z" fill="black"/>
<path fill-rule="evenodd" clip-rule="evenodd" d="M113.475 177.246C115.243 158.161 139.347 149.52 155.011 164.017C156.888 165.754 158.34 168.393 159.415 171.758C160.489 175.115 161.171 179.142 161.544 183.595C162.29 192.501 161.794 203.021 160.793 213.108C159.794 223.19 158.294 232.813 157.043 239.917C156.418 243.469 155.855 246.389 155.449 248.421C155.246 249.437 155.082 250.231 154.969 250.77C154.932 250.946 154.901 251.095 154.875 251.216C153.139 251.864 149.869 252.549 145.809 253.212C141.494 253.917 136.377 254.585 131.466 255.163C126.558 255.741 121.862 256.228 118.394 256.571C116.66 256.742 115.233 256.877 114.239 256.969C113.933 256.998 113.668 257.022 113.448 257.042C113.432 256.633 113.41 256.066 113.384 255.357C113.326 253.78 113.245 251.5 113.156 248.687C112.977 243.06 112.762 235.3 112.619 226.769C112.333 209.692 112.334 189.566 113.475 177.246ZM112.751 257.835C112.025 257.865 112.025 257.865 112.025 257.864L112.025 257.862L112.018 257.703C112.014 257.596 112.008 257.437 112 257.229C111.983 256.813 111.96 256.2 111.931 255.411C111.873 253.832 111.792 251.549 111.702 248.733C111.523 243.101 111.309 235.334 111.165 226.793C110.879 209.724 110.878 189.522 112.027 177.112C113.924 156.63 139.598 147.771 155.999 162.95C158.13 164.922 159.684 167.823 160.8 171.315C161.919 174.812 162.615 178.956 162.993 183.474C163.75 192.508 163.244 203.127 162.241 213.252C161.236 223.381 159.73 233.042 158.475 240.169C157.848 243.733 157.283 246.665 156.875 248.706C156.671 249.727 156.506 250.525 156.393 251.069C156.336 251.341 156.291 251.549 156.261 251.689L156.227 251.848L156.215 251.902C156.215 251.903 156.215 251.903 155.505 251.748L156.215 251.903L156.135 252.27L155.789 252.417C153.976 253.187 150.355 253.943 146.043 254.647C141.697 255.357 136.556 256.028 131.636 256.607C126.716 257.187 122.011 257.675 118.537 258.018C116.799 258.189 115.37 258.325 114.374 258.417C113.876 258.463 113.486 258.499 113.221 258.523L112.817 258.559L112.816 258.559C112.815 258.559 112.815 258.559 112.751 257.835ZM112.751 257.835L112.816 258.559L112.056 258.627L112.025 257.864L112.751 257.835Z" fill="black"/>
<path d="M118.455 138.169C117.911 135.002 120.037 131.994 123.204 131.451L134.123 129.575C137.289 129.032 140.297 131.158 140.841 134.324L144.704 156.824C145.248 159.99 143.122 162.998 139.956 163.542L129.036 165.417C125.87 165.961 122.863 163.835 122.319 160.669L118.455 138.169Z" fill="white"/>
<path fill-rule="evenodd" clip-rule="evenodd" d="M134.369 131.009L123.45 132.884C121.075 133.292 119.481 135.548 119.888 137.922L123.752 160.423C124.16 162.797 126.416 164.392 128.79 163.984L139.71 162.109C142.085 161.701 143.679 159.445 143.271 157.07L139.407 134.57C139 132.195 136.744 130.601 134.369 131.009ZM123.204 131.451C120.037 131.994 117.911 135.002 118.455 138.169L122.319 160.669C122.863 163.835 125.87 165.961 129.036 165.417L139.956 163.542C143.122 162.998 145.248 159.99 144.704 156.824L140.841 134.324C140.297 131.158 137.289 129.032 134.123 129.575L123.204 131.451Z" fill="black"/>
<path fill-rule="evenodd" clip-rule="evenodd" d="M140.937 111.565C140.793 111.94 140.981 112.361 141.356 112.504L153.243 117.059L146.763 123.364C146.475 123.644 146.469 124.104 146.749 124.392C147.029 124.68 147.489 124.686 147.777 124.406L155.888 116.514L141.876 111.146C141.501 111.003 141.081 111.19 140.937 111.565Z" fill="black"/>
<path d="M104.499 125.522C97.9522 110.599 104.519 100.54 115.382 95.8593C148.507 81.5856 149.094 121.325 152.16 130.85C155.859 142.34 138.979 150.168 127.77 150.905C116.562 151.642 112.683 144.177 104.499 125.522Z" fill="white"/>
<path fill-rule="evenodd" clip-rule="evenodd" d="M102.747 106.557C105.022 101.379 109.545 97.5828 115.095 95.1913C123.485 91.5762 129.94 91.3283 134.938 93.2884C139.929 95.2457 143.315 99.346 145.694 104.105C148.073 108.862 149.484 114.351 150.491 119.209C150.854 120.964 151.168 122.648 151.454 124.186C151.564 124.777 151.67 125.347 151.773 125.89C152.148 127.867 152.486 129.486 152.853 130.627C154.852 136.835 151.225 141.957 145.963 145.512C140.687 149.077 133.538 151.254 127.819 151.63C124.932 151.82 122.468 151.485 120.27 150.541C118.072 149.597 116.192 148.068 114.441 145.949C110.969 141.748 107.912 135.111 103.834 125.815C100.498 118.211 100.466 111.749 102.747 106.557ZM104.078 107.142C101.997 111.881 101.954 117.91 105.166 125.23C109.271 134.588 112.247 141.011 115.562 145.022C117.204 147.009 118.907 148.373 120.844 149.205C122.782 150.037 125.006 150.358 127.723 150.179C133.212 149.818 140.108 147.713 145.149 144.307C150.205 140.891 153.169 136.354 151.469 131.072C151.069 129.832 150.717 128.126 150.344 126.162C150.239 125.608 150.132 125.032 150.022 124.438C149.736 122.904 149.427 121.243 149.067 119.505C148.066 114.678 146.685 109.339 144.393 104.755C142.102 100.173 138.938 96.4192 134.407 94.6423C129.883 92.868 123.843 93.0053 115.67 96.5269C110.357 98.8164 106.166 102.39 104.078 107.142Z" fill="black"/>
<path d="M145.316 105.892C141.18 105.975 137.867 112.854 136.714 113.47C135.561 114.087 134.462 112.667 132.385 113.048C129.789 113.524 129.481 120.419 134.681 123.113C135.602 123.59 134.681 133.642 134.681 133.642C133.229 139.52 113.507 142.729 113.859 143.613C113.866 143.625 113.87 143.632 113.87 143.632C113.865 143.625 113.861 143.619 113.859 143.613C113.552 143.077 106.69 131.083 105.361 128.092C100.384 116.894 101.704 103.504 110.17 98.8626C118.636 94.2214 125.774 92.5874 133.848 93.6825C139.303 94.4225 145.264 103.943 145.316 105.892Z" fill="black"/>
<path fill-rule="evenodd" clip-rule="evenodd" d="M113.188 101.497C112.961 100.807 112.961 100.807 112.961 100.807L112.96 100.807L112.958 100.808L112.953 100.809L112.937 100.815C112.924 100.819 112.907 100.825 112.885 100.833C112.841 100.849 112.779 100.872 112.701 100.903C112.545 100.964 112.325 101.057 112.057 101.185C111.52 101.442 110.788 101.842 109.99 102.422C108.392 103.583 106.514 105.476 105.428 108.389C104.347 111.287 104.297 114.534 104.682 117.31C105.065 120.073 105.894 122.479 106.673 123.703C106.889 124.041 107.338 124.141 107.677 123.925C108.015 123.71 108.115 123.26 107.9 122.922C107.273 121.938 106.489 119.757 106.122 117.11C105.757 114.478 105.822 111.494 106.79 108.898C107.753 106.317 109.415 104.637 110.844 103.598C111.559 103.079 112.213 102.723 112.684 102.497C112.919 102.385 113.108 102.306 113.235 102.255C113.299 102.23 113.347 102.212 113.377 102.201C113.393 102.196 113.404 102.192 113.41 102.19L113.416 102.188L113.416 102.188C113.416 102.188 113.416 102.188 113.416 102.188C113.797 102.062 114.004 101.652 113.879 101.27C113.754 100.889 113.343 100.681 112.961 100.807L113.188 101.497Z" fill="white"/>
<path fill-rule="evenodd" clip-rule="evenodd" d="M151.271 128.456C151.643 128.608 151.821 129.033 151.669 129.404C151.409 130.039 150.493 131.31 148.815 131.31C147.407 131.31 146.473 130.836 146.098 130.429C145.826 130.134 145.845 129.674 146.141 129.402C146.436 129.13 146.896 129.149 147.168 129.444C147.168 129.444 147.168 129.445 147.169 129.445C147.181 129.455 147.3 129.557 147.576 129.659C147.853 129.763 148.263 129.856 148.815 129.856C149.675 129.856 150.186 129.188 150.323 128.854C150.475 128.482 150.9 128.304 151.271 128.456Z" fill="black"/>
<path d="M143.733 114.678C144.113 116.057 144.103 117.263 143.709 117.372C143.315 117.481 142.687 116.451 142.306 115.072C141.926 113.693 141.937 112.488 142.33 112.379C142.724 112.27 143.352 113.3 143.733 114.678Z" fill="black"/>
<path d="M111.768 256.745C111.768 249.315 117.79 243.292 125.219 243.292C132.648 243.292 138.67 249.315 138.67 256.745V306.191C138.67 313.621 132.648 319.644 125.219 319.644C117.79 319.644 111.768 313.621 111.768 306.191V256.745Z" fill="black"/>
<path d="M174.264 286.558C174.264 279.128 180.286 273.105 187.715 273.105C195.144 273.105 201.166 279.128 201.166 286.558V335.277C201.166 342.707 195.144 348.73 187.715 348.73C180.286 348.73 174.264 342.707 174.264 335.277V286.558Z" fill="black"/>
<path d="M138.123 273.406C131.674 269.682 129.464 261.434 133.187 254.984C136.911 248.534 145.158 246.325 151.607 250.048L193.939 274.491C200.389 278.215 202.599 286.462 198.875 292.912C195.151 299.362 186.905 301.572 180.455 297.848L138.123 273.406Z" fill="black"/>
<path d="M111.768 305.464C111.768 298.035 117.79 292.012 125.219 292.012C132.648 292.012 138.67 298.035 138.67 305.464V354.911C138.67 362.34 132.648 368.363 125.219 368.363C117.79 368.363 111.768 362.34 111.768 354.911V305.464Z" fill="black"/>
<path fill-rule="evenodd" clip-rule="evenodd" d="M132.051 266.471C132.438 266.362 132.84 266.586 132.949 266.972C133.843 270.122 136.111 272.303 139.496 274.205C139.846 274.401 139.971 274.845 139.774 275.195C139.578 275.545 139.134 275.669 138.784 275.473C135.235 273.479 132.593 271.043 131.55 267.369C131.441 266.983 131.665 266.581 132.051 266.471Z" fill="#E4ECF4"/>
<path d="M148.574 228.835C148.635 226.78 150.344 225.281 152.39 225.488C154.435 225.695 156.044 227.528 155.982 229.584L155.609 242.002C155.547 244.057 153.838 245.556 151.793 245.349C149.747 245.142 148.139 243.309 148.2 241.253L148.574 228.835Z" fill="white"/>
<path fill-rule="evenodd" clip-rule="evenodd" d="M154.162 241.856L154.535 229.437C154.573 228.185 153.593 227.067 152.346 226.941C151.099 226.815 150.058 227.729 150.021 228.981L149.647 241.399C149.61 242.652 150.59 243.769 151.836 243.895C153.083 244.021 154.124 243.108 154.162 241.856ZM152.39 225.488C150.344 225.281 148.635 226.78 148.574 228.835L148.2 241.253C148.139 243.309 149.747 245.142 151.793 245.349C153.838 245.556 155.547 244.057 155.609 242.002L155.982 229.584C156.044 227.528 154.435 225.695 152.39 225.488Z" fill="black"/>
<path d="M168.447 345.404C168.447 339.948 173.397 335.831 178.761 336.824L186.49 338.255C187.54 338.45 188.617 338.45 189.668 338.255L197.397 336.824C202.761 335.831 207.711 339.948 207.711 345.404V358.91H168.447V345.404Z" fill="#FF4B78"/>
<path fill-rule="evenodd" clip-rule="evenodd" d="M206.256 357.456V345.404C206.256 340.858 202.132 337.426 197.662 338.254L189.933 339.685C188.707 339.912 187.451 339.912 186.225 339.685L178.496 338.254C174.026 337.426 169.901 340.858 169.901 345.404V357.456H206.256ZM178.761 336.824C173.397 335.831 168.447 339.948 168.447 345.404V358.91H207.711V345.404C207.711 339.948 202.761 335.831 197.397 336.824L189.668 338.255C188.617 338.45 187.54 338.45 186.49 338.255L178.761 336.824Z" fill="black"/>
<path d="M131.096 374.18C131.096 369.361 135.002 365.455 139.821 365.455H145.638C150.457 365.455 154.363 369.361 154.363 374.18V379.998H131.096V374.18Z" fill="white"/>
<path fill-rule="evenodd" clip-rule="evenodd" d="M146.352 89.3751C146.955 90.2472 147.189 91.4219 146.991 92.9071C146.684 95.2094 144.601 96.2603 142.494 96.5367C140.358 96.8168 137.849 96.379 136.011 95.3936C134.829 94.8309 133.761 94.4924 132.877 94.2121C132.647 94.1392 132.43 94.0702 132.226 94.0022C131.845 93.8752 131.639 93.4634 131.766 93.0824C131.893 92.7014 132.305 92.4955 132.686 92.6225C132.864 92.6818 133.063 92.7448 133.279 92.8134C134.17 93.0953 135.363 93.4731 136.653 94.0885L136.669 94.0962L136.684 94.1046C138.243 94.9446 140.451 95.3379 142.305 95.0947C144.193 94.8471 145.377 94.0154 145.55 92.7149C145.716 91.4732 145.496 90.6937 145.156 90.2024C144.815 89.7102 144.282 89.4015 143.609 89.2478C142.932 89.093 142.158 89.108 141.435 89.2328C140.708 89.3585 140.095 89.5844 139.737 89.7988C139.393 90.0054 138.946 89.8937 138.74 89.5493C138.533 89.205 138.645 88.7583 138.989 88.5517C139.541 88.2207 140.336 87.9467 141.188 87.7997C142.044 87.6518 143.02 87.6213 143.933 87.8301C144.852 88.04 145.749 88.5039 146.352 89.3751Z" fill="black"/>
<path d="M115.369 255.104H126.276V260.558C126.276 263.57 123.834 266.011 120.822 266.011C117.811 266.011 115.369 263.57 115.369 260.558V255.104Z" fill="black"/>
<path fill-rule="evenodd" clip-rule="evenodd" d="M124.821 256.558H116.823V260.558C116.823 262.766 118.614 264.557 120.822 264.557C123.031 264.557 124.821 262.766 124.821 260.558V256.558ZM115.369 255.104V260.558C115.369 263.57 117.811 266.011 120.822 266.011C123.834 266.011 126.276 263.57 126.276 260.558V255.104H115.369Z" fill="white"/>
<path d="M137.908 254.927H148.815V260.381C148.815 263.393 146.373 265.834 143.361 265.834C140.35 265.834 137.908 263.393 137.908 260.381V254.927Z" fill="black"/>
<path fill-rule="evenodd" clip-rule="evenodd" d="M147.36 256.381H139.362V260.381C139.362 262.589 141.153 264.38 143.361 264.38C145.57 264.38 147.36 262.589 147.36 260.381V256.381ZM137.908 254.927V260.381C137.908 263.393 140.35 265.834 143.361 265.834C146.373 265.834 148.815 263.393 148.815 260.381V254.927H137.908Z" fill="white"/>
<path fill-rule="evenodd" clip-rule="evenodd" d="M159.636 166.886C154.495 163.196 147.304 164.642 143.987 170.032L142.49 172.465C139.32 177.618 140.949 184.367 146.121 187.506L176.41 205.886L152.907 220.134C149.49 222.206 147.996 226.393 149.33 230.16C150.99 234.848 156.326 237.089 160.835 234.99L200.713 216.433C205.29 214.303 207.68 209.386 206.804 204.642C206.419 201.957 204.979 199.435 202.617 197.739L159.636 166.886Z" fill="white"/>
<path fill-rule="evenodd" clip-rule="evenodd" d="M179.214 205.887L153.661 221.378C150.833 223.092 149.597 226.557 150.701 229.675C152.074 233.554 156.49 235.408 160.221 233.672L200.1 215.114C204.061 213.271 206.133 209.014 205.374 204.906L205.369 204.877L205.365 204.849C205.033 202.541 203.797 200.377 201.769 198.921L158.788 168.068C154.333 164.87 148.1 166.122 145.226 170.794L143.729 173.227C140.981 177.693 142.393 183.543 146.876 186.263L179.214 205.887ZM152.907 220.134C149.49 222.206 147.996 226.393 149.33 230.16C150.99 234.848 156.326 237.089 160.835 234.99L200.713 216.433C205.29 214.303 207.68 209.386 206.804 204.642C206.419 201.957 204.979 199.435 202.617 197.739L159.636 166.886C154.495 163.196 147.304 164.642 143.987 170.032L142.49 172.465C139.32 177.618 140.949 184.367 146.121 187.506L176.41 205.886L152.907 220.134Z" fill="black"/>
<path d="M160.323 237.323C162.017 236.401 163.967 237.505 163.962 239.382C163.96 240.369 163.391 241.306 162.501 241.79L160.419 242.923C158.736 243.838 156.785 243.972 155.105 243.287L153.022 242.438C152.13 242.074 151.563 241.211 151.565 240.219C151.57 238.34 153.522 236.965 155.218 237.647L156.394 238.121C157.291 238.481 158.33 238.408 159.226 237.92L160.323 237.323Z" fill="white"/>
<path fill-rule="evenodd" clip-rule="evenodd" d="M159.799 241.652L161.882 240.519C162.265 240.31 162.51 239.907 162.511 239.481C162.513 238.672 161.673 238.196 160.943 238.594L159.846 239.191C158.557 239.892 157.063 239.998 155.775 239.479L154.598 239.006C153.864 238.711 153.018 239.306 153.016 240.12C153.015 240.55 153.261 240.924 153.647 241.082L155.73 241.931C157.017 242.455 158.511 242.353 159.799 241.652ZM163.962 239.382C163.967 237.505 162.017 236.401 160.323 237.323L159.226 237.92C158.33 238.408 157.291 238.481 156.394 238.121L155.218 237.647C153.522 236.965 151.57 238.34 151.565 240.219C151.563 241.211 152.13 242.074 153.022 242.438L155.105 243.287C156.785 243.972 158.736 243.838 160.419 242.923L162.501 241.79C163.391 241.306 163.96 240.369 163.962 239.382Z" fill="black"/>
<path d="M159.634 241.506C161.328 240.585 163.277 241.688 163.273 243.566C163.27 244.552 162.701 245.489 161.812 245.974L159.729 247.106C158.046 248.022 156.095 248.156 154.416 247.471L152.333 246.622C151.44 246.258 150.873 245.394 150.876 244.403C150.88 242.524 152.833 241.149 154.528 241.831L155.704 242.304C156.601 242.665 157.64 242.591 158.537 242.103L159.634 241.506Z" fill="white"/>
<path fill-rule="evenodd" clip-rule="evenodd" d="M159.11 245.835L161.192 244.703C161.576 244.494 161.821 244.09 161.822 243.665C161.824 242.856 160.984 242.38 160.254 242.777L159.156 243.374C157.868 244.076 156.374 244.182 155.085 243.663L153.909 243.19C153.174 242.894 152.329 243.49 152.326 244.304C152.325 244.734 152.571 245.108 152.958 245.265L155.041 246.115C156.327 246.639 157.821 246.536 159.11 245.835ZM163.273 243.566C163.277 241.688 161.328 240.585 159.634 241.506L158.537 242.103C157.64 242.591 156.601 242.665 155.704 242.304L154.528 241.831C152.833 241.149 150.88 242.524 150.876 244.403C150.873 245.394 151.44 246.258 152.333 246.622L154.416 247.471C156.095 248.156 158.046 248.022 159.729 247.106L161.812 245.974C162.701 245.489 163.27 244.552 163.273 243.566Z" fill="black"/>
<path d="M160.542 233.694C162.236 232.772 164.186 233.875 164.181 235.753C164.178 236.74 163.61 237.677 162.72 238.161L160.637 239.294C158.955 240.209 157.004 240.343 155.324 239.658L153.241 238.809C152.348 238.445 151.781 237.581 151.784 236.59C151.789 234.711 153.741 233.336 155.437 234.018L156.613 234.491C157.509 234.852 158.548 234.779 159.445 234.291L160.542 233.694Z" fill="white"/>
<path fill-rule="evenodd" clip-rule="evenodd" d="M160.018 238.023L162.1 236.89C162.484 236.681 162.729 236.277 162.73 235.852C162.732 235.043 161.892 234.567 161.162 234.965L160.064 235.562C158.776 236.263 157.282 236.369 155.993 235.85L154.817 235.377C154.083 235.082 153.237 235.677 153.235 236.491C153.234 236.921 153.479 237.295 153.866 237.453L155.949 238.302C157.235 238.826 158.729 238.724 160.018 238.023ZM164.181 235.753C164.186 233.875 162.236 232.772 160.542 233.694L159.445 234.291C158.548 234.779 157.509 234.852 156.613 234.491L155.437 234.018C153.741 233.336 151.789 234.711 151.784 236.59C151.781 237.581 152.348 238.445 153.241 238.809L155.324 239.658C157.004 240.343 158.955 240.209 160.637 239.294L162.72 238.161C163.61 237.677 164.178 236.74 164.181 235.753Z" fill="black"/>
<path d="M168.447 357.455H437.474C449.923 357.455 460.014 367.548 460.014 379.997H168.447V357.455Z" fill="white"/>
<path fill-rule="evenodd" clip-rule="evenodd" d="M459.968 378.543C459.999 379.024 460.014 379.509 460.014 379.997H168.447V357.455H437.474C449.434 357.455 459.219 366.771 459.968 378.543ZM458.511 378.543C457.764 367.575 448.631 358.91 437.474 358.91H169.901V378.543H458.511Z" fill="black"/>
<path d="M11.3926 123.49C11.3926 119.875 14.3224 116.945 17.9365 116.945C21.5506 116.945 24.4804 119.875 24.4804 123.49V159.847C24.4804 163.462 21.5506 166.392 17.9365 166.392C14.3224 166.392 11.3926 163.462 11.3926 159.847V123.49Z" fill="#2C73FB"/>
<path d="M30.2969 147.849C30.2969 144.435 33.0639 141.668 36.4772 141.668C39.8905 141.668 42.6576 144.435 42.6576 147.849V160.211C42.6576 163.624 39.8905 166.391 36.4772 166.391C33.0639 166.391 30.2969 163.624 30.2969 160.211V147.849Z" fill="#FF4B78"/>
<path d="M49.2031 134.76C49.2031 131.347 51.9702 128.579 55.3835 128.579C58.7968 128.579 61.5638 131.347 61.5638 134.76V160.211C61.5638 163.624 58.7968 166.391 55.3835 166.391C51.9702 166.391 49.2031 163.624 49.2031 160.211V134.76Z" fill="#47DB99"/>
<path d="M379.307 197.659C379.307 195.651 380.934 194.023 382.942 194.023C384.95 194.023 386.578 195.651 386.578 197.659V218.746C386.578 220.754 384.95 222.382 382.942 222.382C380.934 222.382 379.307 220.754 379.307 218.746V197.659Z" fill="#47DB99"/>
<path d="M416.389 193.296C416.389 190.887 418.342 188.933 420.751 188.933C423.161 188.933 425.114 190.887 425.114 193.296V218.02C425.114 220.429 423.161 222.382 420.751 222.382C418.342 222.382 416.389 220.429 416.389 218.02V193.296Z" fill="#E4ECF4"/>
<path d="M390.939 208.93C390.939 206.721 392.73 204.93 394.939 204.93C397.147 204.93 398.938 206.721 398.938 208.93V218.383C398.938 220.591 397.147 222.382 394.939 222.382C392.73 222.382 390.939 220.591 390.939 218.383V208.93Z" fill="#FF4B78"/>
<path d="M403.301 201.295C403.301 198.885 405.254 196.932 407.663 196.932C410.073 196.932 412.026 198.885 412.026 201.295V218.019C412.026 220.429 410.073 222.382 407.663 222.382C405.254 222.382 403.301 220.429 403.301 218.019V201.295Z" fill="#2C73FB"/>
<path d="M429.475 217.292C429.475 214.883 431.428 212.929 433.837 212.929C436.247 212.929 438.2 214.883 438.2 217.292V218.019C438.2 220.429 436.247 222.382 433.837 222.382C431.428 222.382 429.475 220.429 429.475 218.019V217.292Z" fill="#47DB99"/>
<path fill-rule="evenodd" clip-rule="evenodd" d="M469.467 198.386C469.467 197.984 469.792 197.659 470.194 197.659H516.001C516.403 197.659 516.728 197.984 516.728 198.386C516.728 198.787 516.403 199.113 516.001 199.113H470.194C469.792 199.113 469.467 198.787 469.467 198.386Z" fill="black"/>
<path fill-rule="evenodd" clip-rule="evenodd" d="M469.467 205.657C469.467 205.256 469.792 204.93 470.194 204.93H516.001C516.403 204.93 516.728 205.256 516.728 205.657C516.728 206.059 516.403 206.384 516.001 206.384H470.194C469.792 206.384 469.467 206.059 469.467 205.657Z" fill="black"/>
<path fill-rule="evenodd" clip-rule="evenodd" d="M469.467 212.929C469.467 212.527 469.792 212.202 470.194 212.202H516.001C516.403 212.202 516.728 212.527 516.728 212.929C516.728 213.33 516.403 213.656 516.001 213.656H470.194C469.792 213.656 469.467 213.33 469.467 212.929Z" fill="black"/>
<path fill-rule="evenodd" clip-rule="evenodd" d="M469.467 220.201C469.467 219.799 469.792 219.474 470.194 219.474H516.001C516.403 219.474 516.728 219.799 516.728 220.201C516.728 220.602 516.403 220.928 516.001 220.928H470.194C469.792 220.928 469.467 220.602 469.467 220.201Z" fill="black"/>
<path fill-rule="evenodd" clip-rule="evenodd" d="M469.467 260.194C469.467 259.792 469.792 259.467 470.194 259.467H516.001C516.403 259.467 516.728 259.792 516.728 260.194C516.728 260.595 516.403 260.921 516.001 260.921H470.194C469.792 260.921 469.467 260.595 469.467 260.194Z" fill="black"/>
<path fill-rule="evenodd" clip-rule="evenodd" d="M469.467 252.922C469.467 252.521 469.792 252.195 470.194 252.195H493.461C493.863 252.195 494.188 252.521 494.188 252.922C494.188 253.324 493.863 253.65 493.461 253.65H470.194C469.792 253.65 469.467 253.324 469.467 252.922Z" fill="black"/>
<path fill-rule="evenodd" clip-rule="evenodd" d="M469.467 274.737C469.467 274.336 469.792 274.01 470.194 274.01H516.001C516.403 274.01 516.728 274.336 516.728 274.737C516.728 275.139 516.403 275.465 516.001 275.465H470.194C469.792 275.465 469.467 275.139 469.467 274.737Z" fill="black"/>
<path fill-rule="evenodd" clip-rule="evenodd" d="M469.467 267.465C469.467 267.064 469.792 266.738 470.194 266.738H493.461C493.863 266.738 494.188 267.064 494.188 267.465C494.188 267.867 493.863 268.192 493.461 268.192H470.194C469.792 268.192 469.467 267.867 469.467 267.465Z" fill="black"/>
<path fill-rule="evenodd" clip-rule="evenodd" d="M469.467 143.85C469.467 143.449 469.792 143.123 470.194 143.123H516.001C516.403 143.123 516.728 143.449 516.728 143.85C516.728 144.252 516.403 144.577 516.001 144.577H470.194C469.792 144.577 469.467 144.252 469.467 143.85Z" fill="black"/>
<path fill-rule="evenodd" clip-rule="evenodd" d="M469.467 151.121C469.467 150.719 469.792 150.394 470.194 150.394H516.001C516.403 150.394 516.728 150.719 516.728 151.121C516.728 151.523 516.403 151.848 516.001 151.848H470.194C469.792 151.848 469.467 151.523 469.467 151.121Z" fill="black"/>
<path fill-rule="evenodd" clip-rule="evenodd" d="M469.467 158.392C469.467 157.991 469.792 157.665 470.194 157.665H493.461C493.863 157.665 494.188 157.991 494.188 158.392C494.188 158.794 493.863 159.12 493.461 159.12H470.194C469.792 159.12 469.467 158.794 469.467 158.392Z" fill="black"/>
<path fill-rule="evenodd" clip-rule="evenodd" d="M469.467 165.664C469.467 165.262 469.792 164.937 470.194 164.937H493.461C493.863 164.937 494.188 165.262 494.188 165.664C494.188 166.065 493.863 166.391 493.461 166.391H470.194C469.792 166.391 469.467 166.065 469.467 165.664Z" fill="black"/>
<path d="M55.7459 338.727H37.5684L40.8403 379.447H71.015L74.2869 338.727H55.7459Z" fill="white"/>
<path fill-rule="evenodd" clip-rule="evenodd" d="M36.7812 338H75.0756L71.6868 380.175H40.1701L36.7812 338ZM38.357 339.454L41.5121 378.72H70.3447L73.4998 339.454H38.357Z" fill="black"/>
<path d="M37.4434 314.663C37.4372 314.661 37.4309 314.658 37.4247 314.655C35.6347 313.95 23.2441 324.191 17.448 328.539C11.6312 332.902 5.16628 330.799 2.90616 328.539C0.36939 326.002 -1.09289 318.722 11.9949 311.451C22.4652 305.633 33.3232 311.169 37.4434 314.663Z" fill="#47DB99"/>
<path fill-rule="evenodd" clip-rule="evenodd" d="M27.2713 308.857C31.8698 309.965 35.6754 312.234 37.8295 314.036C40.1995 315.053 42.6473 316.412 45.1279 318.123C53.8767 324.157 54.7873 334.43 54.16 338.821L52.7205 338.615C53.3051 334.523 52.4222 324.92 44.3023 319.32C41.8719 317.644 39.4879 316.325 37.1969 315.348C37.1801 315.349 37.1517 315.352 37.1094 315.36C36.9872 315.384 36.8108 315.44 36.5745 315.54C36.1033 315.739 35.4863 316.076 34.7459 316.534C33.2702 317.445 31.3932 318.779 29.3737 320.284C27.3576 321.787 25.2149 323.449 23.2101 325.009C22.9683 325.197 22.7285 325.384 22.4911 325.569C20.7634 326.915 19.1647 328.16 17.8849 329.12C14.8172 331.421 11.5613 332.024 8.77151 331.745C6.00832 331.468 3.66087 330.32 2.39268 329.052C0.936821 327.596 -0.137739 324.862 0.898032 321.552C1.92903 318.258 5.0137 314.497 11.6424 310.814C17.0714 307.798 22.5982 307.731 27.2713 308.857ZM37.1587 315.331C37.1587 315.331 37.1587 315.331 37.1587 315.331L37.2854 315.009L37.2856 315.009L37.1587 315.331ZM32.3684 312.26C26.7638 311.043 21.8391 311.942 18.4268 314.9L19.3792 315.999C22.917 312.932 28.5492 312.245 35.2208 314.58C34.838 314.782 34.4221 315.024 33.9818 315.296C32.4497 316.242 30.5312 317.608 28.5047 319.118C26.475 320.631 24.3214 322.301 22.3169 323.862C22.0748 324.05 21.835 324.237 21.5979 324.421C19.8678 325.769 18.2808 327.005 17.0123 327.956C14.2632 330.018 11.3783 330.544 8.91636 330.298C6.42786 330.049 4.4128 329.016 3.42087 328.024C2.33996 326.943 1.415 324.769 2.28584 321.987C3.16146 319.189 5.88955 315.674 12.3486 312.086C17.39 309.285 22.5272 309.21 26.9307 310.271C28.929 310.753 30.7689 311.467 32.3684 312.26Z" fill="black"/>
<path d="M39.0325 283.298C37.3894 292.662 44.1654 305.102 47.7587 310.152C44.85 308.316 37.1156 303.06 29.448 296.725C19.8635 288.806 15.756 277.096 15.7559 267.116C15.7557 258.789 22.9442 241.639 35.6095 241.295C48.2747 240.951 47.7587 254.717 44.5093 262.296C42.6909 266.538 41.0863 271.592 39.0325 283.298Z" fill="#47DB99"/>
<path fill-rule="evenodd" clip-rule="evenodd" d="M46.7348 248.653C47.8298 253.194 46.845 258.695 45.1782 262.582C43.3901 266.753 41.7978 271.747 39.7492 283.423C38.9624 287.907 40.1881 293.207 42.1089 298.076C44.0173 302.913 46.5708 307.223 48.3367 309.709C58.854 322.461 57.1318 334.197 54.3859 339.083C54.1892 339.433 53.7459 339.558 53.3959 339.361C53.0458 339.164 52.9215 338.721 53.1182 338.371C55.547 334.049 57.3673 322.994 47.2721 310.704C44.2684 308.799 36.595 303.572 28.9855 297.285C19.2072 289.206 15.0295 277.275 15.0293 267.116C15.0292 262.793 16.8777 256.292 20.3183 250.824C23.7564 245.361 28.9059 240.749 35.5902 240.568C38.8925 240.478 41.415 241.309 43.258 242.8C45.0952 244.286 46.1838 246.369 46.7348 248.653ZM42.7775 305.927C39.1871 303.413 34.5369 299.985 29.9116 296.164C20.5209 288.405 16.4837 276.915 16.4835 267.116C16.4834 263.111 18.2292 256.874 21.5491 251.599C24.8715 246.319 29.6489 242.184 35.6298 242.021C38.6601 241.939 40.8226 242.7 42.3434 243.93C43.87 245.165 44.824 246.933 45.3211 248.994C46.3221 253.146 45.4242 258.318 43.8416 262.009C41.9928 266.322 40.3759 271.436 38.3169 283.172C37.4607 288.052 38.8014 293.654 40.7561 298.609C41.6093 300.772 42.5872 302.83 43.5704 304.678C43.3645 304.486 43.1555 304.295 42.9435 304.103C32.9301 295.056 28.07 286.322 26.5247 278.551C24.9805 270.785 26.7323 263.913 30.0661 258.548C30.2781 258.207 30.1734 257.759 29.8323 257.547C29.4913 257.335 29.0429 257.44 28.831 257.781C25.3187 263.433 23.4764 270.677 25.0984 278.834C26.7194 286.986 31.7862 295.982 41.9686 305.182C42.2436 305.431 42.5132 305.679 42.7775 305.927Z" fill="black"/>
<path d="M74.5484 311.56C69.6038 313.574 64.392 318.95 62.4042 321.387C63.4131 305.39 74.7689 296.864 77.3185 295.418C80.8707 293.404 85.1207 294.571 86.017 299.082C87.0837 304.45 83.047 308.097 74.5484 311.56Z" fill="#47DB99"/>
<path fill-rule="evenodd" clip-rule="evenodd" d="M82.9193 294.122C84.796 294.822 86.2391 296.461 86.7317 298.94C87.3154 301.877 86.4833 304.367 84.3953 306.539C82.3485 308.668 79.0981 310.492 74.8242 312.233C72.4612 313.195 69.9932 314.982 67.8481 316.862C65.7518 318.698 64.0075 320.583 63.0266 321.776C62.1007 323.788 61.3841 326.317 60.6488 328.911C60.4887 329.475 60.3278 330.043 60.1637 330.609C59.2562 333.739 58.2389 336.867 56.6787 338.817C56.4279 339.131 55.9703 339.182 55.6568 338.931C55.3432 338.68 55.2923 338.222 55.5432 337.909C56.8914 336.223 57.8433 333.39 58.767 330.204C58.924 329.662 59.08 329.111 59.2369 328.557C59.9675 325.977 60.7182 323.326 61.6889 321.204C62.7747 304.958 74.3011 296.294 76.9614 294.786C78.8922 293.691 81.067 293.431 82.9193 294.122ZM66.6078 316.017C69.2254 312.254 71.7125 309.226 75.7007 306.38C76.0276 306.146 76.1035 305.692 75.8702 305.365C75.6369 305.039 75.1828 304.963 74.856 305.196C69.706 308.872 66.9421 312.861 63.5281 317.964C65.7721 304.536 75.4332 297.324 77.6787 296.051C79.3 295.131 81.0263 294.968 82.4111 295.484C83.7715 295.992 84.9016 297.191 85.3054 299.223C85.7883 301.654 85.1354 303.671 83.3471 305.531C81.5175 307.434 78.5003 309.165 74.2756 310.886C71.694 311.938 69.0838 313.846 66.8899 315.768C66.7952 315.851 66.7011 315.934 66.6078 316.017Z" fill="black"/>
<path d="M379.307 130.033H438.202V165.664H379.307V130.033Z" fill="#E4ECF4"/>
<path d="M348.041 130.033H362.583V144.577H348.041V130.033Z" fill="#E4ECF4"/>
<path d="M340.77 137.306H355.312V151.849H340.77V137.306Z" fill="#47DB99"/>
<path fill-rule="evenodd" clip-rule="evenodd" d="M427.701 135.975C428.033 136.2 428.121 136.652 427.896 136.985L417.341 152.622L412.293 147.708L405.237 156.341L400.14 140.526L390.864 159.44C390.688 159.801 390.252 159.95 389.891 159.773C389.531 159.596 389.382 159.16 389.559 158.8L400.42 136.653L405.802 153.352L412.171 145.56L417.109 150.367L426.691 136.171C426.916 135.838 427.368 135.751 427.701 135.975Z" fill="black"/>
<path fill-rule="evenodd" clip-rule="evenodd" d="M71.7416 380.175L1.21289 380.175L1.21289 378.72L71.7416 378.72L71.7416 380.175Z" fill="black"/>
<path d="M355.311 180.207L355.311 182.389L340.769 182.389L340.769 180.207L355.311 180.207Z" fill="#E4ECF4"/>
<path d="M355.311 186.025L355.311 188.206L340.769 188.206L340.769 186.025L355.311 186.025Z" fill="#E4ECF4"/>
<path d="M355.311 191.821L355.311 194.003L340.769 194.003L340.769 191.821L355.311 191.821Z" fill="#E4ECF4"/>
<path d="M355.311 197.322L355.311 199.503L340.769 199.503L340.769 197.322L355.311 197.322Z" fill="#E4ECF4"/>
<path d="M355.311 203.434L355.311 205.616L340.769 205.616L340.769 203.434L355.311 203.434Z" fill="#E4ECF4"/>
<path d="M355.311 208.936L355.311 211.117L340.769 211.117L340.769 208.936L355.311 208.936Z" fill="#E4ECF4"/>
<path d="M355.311 214.436L355.311 216.617L340.769 216.617L340.769 214.436L355.311 214.436Z" fill="#E4ECF4"/>
<path d="M355.311 220.549L355.311 222.73L340.769 222.73L340.769 220.549L355.311 220.549Z" fill="#E4ECF4"/>
<path d="M24.4805 180.207L24.4805 182.389L11.3927 182.389L11.3927 180.207L24.4805 180.207Z" fill="#E4ECF4"/>
<path d="M24.4805 186.025L24.4805 188.206L11.3927 188.206L11.3927 186.025L24.4805 186.025Z" fill="#E4ECF4"/>
<path d="M24.4805 191.821L24.4805 194.003L11.3927 194.003L11.3927 191.821L24.4805 191.821Z" fill="#E4ECF4"/>
<path d="M24.4805 197.322L24.4805 199.503L11.3927 199.503L11.3927 197.322L24.4805 197.322Z" fill="#E4ECF4"/>
<path d="M24.4805 203.434L24.4805 205.616L11.3927 205.616L11.3927 203.434L24.4805 203.434Z" fill="#E4ECF4"/>
<path d="M24.4805 208.936L24.4805 211.117L11.3927 211.117L11.3927 208.936L24.4805 208.936Z" fill="#E4ECF4"/>
<path d="M24.4805 214.436L24.4805 216.617L11.3927 216.617L11.3927 214.436L24.4805 214.436Z" fill="#E4ECF4"/>
<path d="M24.4805 220.549L24.4805 222.73L11.3927 222.73L11.3927 220.549L24.4805 220.549Z" fill="#E4ECF4"/>
<path d="M43.3848 180.207L43.3848 182.389L30.297 182.389L30.297 180.207L43.3848 180.207Z" fill="#E4ECF4"/>
<path d="M43.3848 186.025L43.3848 188.206L30.297 188.206L30.297 186.025L43.3848 186.025Z" fill="#E4ECF4"/>
<path d="M43.3848 191.821L43.3848 194.003L30.297 194.003L30.297 191.821L43.3848 191.821Z" fill="#E4ECF4"/>
<path d="M43.3848 197.322L43.3848 199.503L30.297 199.503L30.297 197.322L43.3848 197.322Z" fill="#E4ECF4"/>
<path d="M43.3848 203.434L43.3848 205.616L30.297 205.616L30.297 203.434L43.3848 203.434Z" fill="#E4ECF4"/>
<path d="M43.3848 208.936L43.3848 211.117L30.297 211.117L30.297 208.936L43.3848 208.936Z" fill="#E4ECF4"/>
<path d="M43.3848 214.436L43.3848 216.617L30.297 216.617L30.297 214.436L43.3848 214.436Z" fill="#E4ECF4"/>
<path d="M43.3848 220.549L43.3848 222.73L30.297 222.73L30.297 220.549L43.3848 220.549Z" fill="#E4ECF4"/>
<path fill-rule="evenodd" clip-rule="evenodd" d="M147.712 366.909H141.895C137.879 366.909 134.624 370.165 134.624 374.181V378.544H154.983V374.181C154.983 370.165 151.728 366.909 147.712 366.909ZM141.895 365.455C137.076 365.455 133.17 369.362 133.17 374.181V379.998H156.437V374.181C156.437 369.362 152.531 365.455 147.712 365.455H141.895Z" fill="black"/>
<path d="M106.268 366.492C106.268 361.036 111.218 356.918 116.582 357.912L124.311 359.343C125.361 359.538 126.438 359.538 127.488 359.343L135.217 357.912C140.581 356.918 145.531 361.036 145.531 366.492V379.998H106.268V366.492Z" fill="#FF4B78"/>
<path fill-rule="evenodd" clip-rule="evenodd" d="M144.077 378.543V366.492C144.077 361.945 139.952 358.514 135.482 359.342L127.753 360.773C126.528 361 125.271 361 124.046 360.773L116.317 359.342C111.847 358.514 107.722 361.945 107.722 366.492V378.543H144.077ZM116.582 357.912C111.218 356.918 106.268 361.036 106.268 366.492V379.998H145.531V366.492C145.531 361.036 140.581 356.918 135.217 357.912L127.488 359.343C126.438 359.538 125.361 359.538 124.311 359.343L116.582 357.912Z" fill="black"/>
<path fill-rule="evenodd" clip-rule="evenodd" d="M113.539 379.084V375.085H114.993V379.084H113.539Z" fill="black"/>
<path fill-rule="evenodd" clip-rule="evenodd" d="M121.172 379.084V375.085H122.626V379.084H121.172Z" fill="black"/>
<path fill-rule="evenodd" clip-rule="evenodd" d="M128.443 379.084V375.085H129.898V379.084H128.443Z" fill="black"/>
<path fill-rule="evenodd" clip-rule="evenodd" d="M175.717 357.997V353.997H177.171V357.997H175.717Z" fill="black"/>
<path fill-rule="evenodd" clip-rule="evenodd" d="M183.352 357.997V353.997H184.806V357.997H183.352Z" fill="black"/>
<path fill-rule="evenodd" clip-rule="evenodd" d="M190.623 357.997V353.997H192.077V357.997H190.623Z" fill="black"/>
<path fill-rule="evenodd" clip-rule="evenodd" d="M435.738 8.26729C443.529 9.67272 451.731 14.8285 460.339 23.5242C464.633 27.862 468.961 33.0099 473.391 38.3642C473.881 38.9561 474.372 39.5507 474.864 40.1468C478.786 44.8951 482.786 49.7377 486.791 54.0726C491.289 58.9401 495.966 63.3627 500.79 66.4086C505.627 69.462 510.93 71.3299 516.52 70.5232C518.507 70.2364 519.886 68.3928 519.599 66.4054C519.312 64.418 517.469 63.0394 515.482 63.3262C512.225 63.7961 508.682 62.7917 504.672 60.2598C500.65 57.7204 496.481 53.845 492.132 49.1378C488.273 44.9618 484.41 40.2847 480.468 35.5132C479.978 34.9195 479.486 34.3243 478.993 33.7285C474.577 28.3911 470.058 23.0068 465.506 18.4083C456.421 9.23117 446.93 2.89736 437.029 1.11122C426.907 -0.714671 416.981 2.31806 407.465 10.5578C398.79 18.0684 390.222 30.1475 382.003 41.7336C381.447 42.5162 380.894 43.2966 380.342 44.0732C371.382 56.68 362.894 68.2325 354.639 74.1892C346.83 79.8238 339.296 80.336 331.568 77.269C323.541 74.0836 315.161 66.9574 306.435 56.8844C302.958 52.8701 299.488 48.4627 295.954 43.9761C295.063 42.8445 294.168 41.7078 293.268 40.5711C288.844 34.9849 284.311 29.4171 279.732 24.7914C275.188 20.201 270.341 16.268 265.22 14.2357C259.907 12.1273 254.303 12.0827 248.792 15.2641C247.053 16.2679 246.457 18.4914 247.461 20.2305C248.464 21.9696 250.688 22.5656 252.427 21.5619C255.762 19.6367 259.004 19.5922 262.538 20.9945C266.263 22.4729 270.263 25.5613 274.565 29.9073C278.832 34.218 283.146 39.5014 287.568 45.0857C288.437 46.1833 289.311 47.2935 290.189 48.4085C293.733 52.9088 297.34 57.4892 300.94 61.6455C309.907 71.9985 319.22 80.1918 328.886 84.0278C338.85 87.9823 349.009 87.2178 358.893 80.0862C368.33 73.2766 377.535 60.5733 386.268 48.2859C386.75 47.6076 387.231 46.9303 387.711 46.2545C396.157 34.3562 404.244 22.9643 412.224 16.0552C420.4 8.97539 428.167 6.90162 435.738 8.26729Z" fill="#47DB99"/>
<path fill-rule="evenodd" clip-rule="evenodd" d="M473.742 50.3111C487.611 41.3512 501.272 41.3204 508.703 41.3204H516.001C518.009 41.3204 519.637 39.6926 519.637 37.6846C519.637 35.6766 518.009 34.0488 516.001 34.0488L508.634 34.0488C501.002 34.0487 485.515 34.0485 469.797 44.2031C465.885 46.7298 462.045 49.8502 458.354 52.9476C457.559 53.6146 456.772 54.2792 455.992 54.9385C453.091 57.3899 450.279 59.7666 447.455 61.9111C440.111 67.4877 433.966 70.4491 428.303 69.2296C425.394 68.6033 422.222 66.8039 418.691 64.0563C415.407 61.5006 412.107 58.3651 408.643 55.0752C408.404 54.8481 408.165 54.6204 407.924 54.392C404.271 50.9243 400.426 47.3176 396.516 44.4867C392.629 41.672 388.322 39.3542 383.695 38.856C378.987 38.3492 374.525 39.7744 370.43 42.102C366.352 44.4202 362.417 47.7581 358.65 51.4361C354.944 55.0537 351.256 59.147 347.657 63.1417L347.451 63.3701C343.752 67.4755 340.144 71.4699 336.544 74.9591C322.047 89.0071 309.009 94.0721 296.279 88.5897C289.566 85.6983 282.626 79.7587 276.274 73.0717C270.472 66.9643 265.418 60.5169 261.696 55.7683C261.382 55.3678 261.078 54.9794 260.783 54.6043L253.501 45.0527C252.283 43.4559 250.002 43.1484 248.405 44.3659C246.809 45.5834 246.501 47.8648 247.719 49.4616L255.033 59.055L255.049 59.0757C255.35 59.4585 255.663 59.858 255.988 60.2727C259.695 65.0033 264.95 71.7094 271.002 78.0801C277.532 84.9542 285.299 91.7779 293.404 95.2682C310.309 102.549 326.465 94.8508 341.603 80.1812C345.412 76.491 349.185 72.3089 352.853 68.2378L352.978 68.0986C356.637 64.0379 360.192 60.0926 363.729 56.6393C367.315 53.1378 370.734 50.2935 374.023 48.4237C377.296 46.5633 380.215 45.7949 382.916 46.0858C385.697 46.3852 388.772 47.8566 392.252 50.3765C395.71 52.8803 399.218 56.1539 402.919 59.6662C403.179 59.9129 403.439 60.1608 403.701 60.4097C407.094 63.6333 410.646 67.0087 414.226 69.795C418.063 72.7811 422.271 75.369 426.772 76.3382C435.927 78.3095 444.489 73.2938 451.852 67.7024C454.843 65.4313 457.845 62.8934 460.765 60.426C461.525 59.7832 462.28 59.1453 463.027 58.518C466.704 55.4332 470.244 52.5707 473.742 50.3111Z" fill="#2C73FB"/>
</svg>
