<svg width="95" height="27" viewBox="0 0 95 27" fill="none" xmlns="http://www.w3.org/2000/svg">
<path d="M68.7357 3.01279C68.8917 2.90805 68.9603 2.76018 68.9603 2.57535C68.9603 2.35355 68.8542 2.22416 68.6608 2.11326C68.4674 2.01469 68.2677 2.02085 68.0618 2.02085H68.0368V1.20758C68.1741 1.20142 68.3114 1.1891 68.4174 1.13981C68.5797 1.06587 68.6795 0.893362 68.6795 0.727012C68.6795 0.542178 68.561 0.400473 68.3987 0.3327C68.2365 0.258767 68.0243 0.289573 67.8434 0.289573H67.4003V3.17298H68.0368C68.2802 3.16681 68.511 3.15449 68.7357 3.01279ZM66.6765 26.9426H74.1458L66.6765 23.9298V26.9426ZM73.7028 1.22606C73.5155 0.677723 73.0101 0.326539 72.4048 0.326539C71.8058 0.326539 71.2442 0.708529 71.0819 1.23222L71.0445 1.34312H73.7464L73.7028 1.22606ZM81.7711 14.9222C77.2783 10.4862 77.3657 4.55923 81.8273 0.160189C81.8834 0.104739 81.9334 0.0554501 81.9895 0.00616114H76.0615V3.16681H78.4826V3.98008H75.2191V0H73.8088C74.2893 0.412795 74.6013 1.02275 74.6013 1.68815C74.6013 1.81137 74.5826 1.94075 74.5639 2.0763C74.5639 2.08246 74.5639 2.08862 74.5576 2.10094H71.0632L71.1007 2.218C71.2691 2.76018 71.7808 3.12369 72.3611 3.12369C72.773 3.12369 73.1599 2.97582 73.397 2.7417H74.4016C74.0896 3.4379 73.241 3.96776 72.4048 3.96776C71.1631 3.96776 70.1522 2.97582 70.1522 1.75592C70.1522 1.04123 70.4642 0.418956 70.9571 0.00616114H69.2973C69.4408 0.197156 69.5219 0.425117 69.5219 0.665401C69.5219 1.01658 69.3534 1.36777 69.0227 1.5218C69.5219 1.68199 69.8027 2.10094 69.8027 2.61231C69.8027 3.04975 69.5968 3.42558 69.2474 3.68435C68.8854 3.94928 68.4174 3.96776 67.9806 3.98008H66.6765V18.5388L76.6356 22.7777L71.5874 11.1701L75.4936 7.31325L83.4185 26.8009L83.275 26.9426H94.9938V16.0805C90.8379 19.1056 85.6524 18.7544 81.7711 14.9222ZM91.5181 0L89.9581 2.59999C88.1422 1.78672 86.214 1.94691 84.7663 3.37629C82.4014 5.71136 83.4247 9.15542 85.5339 11.2379C87.6804 13.3573 91.1499 14.2445 93.5149 11.9094C95.0749 10.3692 95.4618 8.3976 94.0078 6.67249L91.075 9.56822L88.2483 6.77723L95 0.123222V0H91.5181Z" fill="#9A9A9A"/>
<path d="M2.29502 4.83506C1.56546 4.62044 1.03379 4.35747 0.700025 4.04613C0.369211 3.73176 0.203805 3.34486 0.203805 2.8854C0.203805 2.36549 0.406132 1.93627 0.810788 1.59772C1.2184 1.25616 1.74711 1.08537 2.39692 1.08537C2.83997 1.08537 3.23429 1.17303 3.57987 1.34835C3.92841 1.52367 4.19719 1.76548 4.38623 2.0738C4.57822 2.38212 4.67421 2.71915 4.67421 3.0849H3.81912C3.81912 2.6859 3.69507 2.37305 3.44696 2.14635C3.19885 1.91662 2.84883 1.80176 2.39692 1.80176C1.9775 1.80176 1.64964 1.89697 1.41334 2.0874C1.18 2.27481 1.06333 2.53628 1.06333 2.8718C1.06333 3.14082 1.17409 3.36904 1.39562 3.55645C1.6201 3.74083 1.99965 3.91011 2.53427 4.06426C3.07184 4.21842 3.49126 4.38921 3.79254 4.57662C4.09677 4.761 4.32125 4.97713 4.46598 5.22499C4.61366 5.47285 4.68751 5.76454 4.68751 6.10007C4.68751 6.63509 4.4837 7.06431 4.07609 7.38775C3.66848 7.70815 3.12353 7.86836 2.44122 7.86836C1.99817 7.86836 1.58465 7.78221 1.20068 7.60992C0.816695 7.4346 0.519849 7.1958 0.310137 6.89353C0.103379 6.59126 0 6.24818 0 5.86429H0.855093C0.855093 6.26329 0.998347 6.57917 1.28486 6.81192C1.57432 7.04164 1.95977 7.15651 2.44122 7.15651C2.89019 7.15651 3.23429 7.0628 3.47354 6.87539C3.71279 6.68799 3.83241 6.43257 3.83241 6.10913C3.83241 5.7857 3.72165 5.53633 3.50012 5.36101C3.2786 5.18267 2.87689 5.00735 2.29502 4.83506Z" fill="#9A9A9A"/>
<path d="M8.61296 7.29253C8.29396 7.67642 7.8258 7.86836 7.20848 7.86836C6.69749 7.86836 6.30761 7.71722 6.03882 7.41495C5.77299 7.10966 5.63859 6.65927 5.63564 6.06379V2.8718H6.45529V6.04112C6.45529 6.78471 6.75066 7.15651 7.3414 7.15651C7.96758 7.15651 8.38405 6.91771 8.59081 6.44012V2.8718H9.41046V7.77768H8.63068L8.61296 7.29253Z" fill="#9A9A9A"/>
<path d="M12.977 3.62446C12.853 3.6033 12.7186 3.59272 12.5739 3.59272C12.0363 3.59272 11.6715 3.82698 11.4795 4.2955V7.77768H10.6599V2.8718H11.4574L11.4707 3.43856C11.7394 3.00027 12.1205 2.78112 12.6137 2.78112C12.7732 2.78112 12.8943 2.80228 12.977 2.8446V3.62446Z" fill="#9A9A9A"/>
<path d="M15.3961 6.63962L16.5835 2.8718H17.4209L15.7018 7.77768H15.0771L13.3403 2.8718H14.1777L15.3961 6.63962Z" fill="#9A9A9A"/>
<path d="M20.1368 7.86836C19.487 7.86836 18.9583 7.65072 18.5506 7.21545C18.143 6.77716 17.9392 6.19226 17.9392 5.46076V5.3066C17.9392 4.81994 18.0293 4.38618 18.2095 4.00532C18.3926 3.62144 18.6466 3.32219 18.9716 3.10757C19.2994 2.88994 19.6539 2.78112 20.0349 2.78112C20.6581 2.78112 21.1425 2.9912 21.4881 3.41136C21.8337 3.83151 22.0065 4.43304 22.0065 5.21592V5.56504H18.7589C18.7707 6.04868 18.908 6.44012 19.1709 6.73937C19.4368 7.0356 19.7735 7.18371 20.1811 7.18371C20.4705 7.18371 20.7157 7.12326 20.9166 7.00235C21.1174 6.88144 21.2932 6.72124 21.4438 6.52174L21.9444 6.92074C21.5427 7.55248 20.9402 7.86836 20.1368 7.86836ZM20.0349 3.4703C19.7041 3.4703 19.4264 3.59423 19.2019 3.84209C18.9775 4.08693 18.8386 4.43152 18.7855 4.87586H21.1868V4.81239C21.1632 4.38618 21.0509 4.05671 20.8501 3.82396C20.6492 3.58819 20.3775 3.4703 20.0349 3.4703Z" fill="#9A9A9A"/>
<path d="M24.4654 6.54894L25.5819 2.8718H26.4592L24.5319 8.53487C24.2335 9.351 23.7595 9.75907 23.1097 9.75907L22.9546 9.74547L22.6489 9.68653V9.00641L22.8704 9.02455C23.1481 9.02455 23.3637 8.96712 23.5173 8.85225C23.6738 8.73739 23.8023 8.52731 23.9027 8.22202L24.0844 7.72327L22.3742 2.8718H23.2692L24.4654 6.54894Z" fill="#9A9A9A"/>
<path d="M31.3682 7.18371C31.6606 7.18371 31.9161 7.09303 32.1347 6.91167C32.3532 6.7303 32.4743 6.5036 32.498 6.23155H33.2733C33.2586 6.51267 33.164 6.78018 32.9898 7.03409C32.8155 7.288 32.5822 7.49052 32.2897 7.64165C32.0003 7.79279 31.6931 7.86836 31.3682 7.86836C30.7154 7.86836 30.1956 7.64619 29.8086 7.20185C29.4247 6.75449 29.2327 6.1439 29.2327 5.37008V5.22952C29.2327 4.75193 29.3183 4.32724 29.4896 3.95545C29.661 3.58365 29.9061 3.29498 30.2251 3.08944C30.5471 2.88389 30.9266 2.78112 31.3638 2.78112C31.9013 2.78112 32.3473 2.94586 32.7018 3.27533C33.0592 3.60481 33.2497 4.03253 33.2733 4.55848H32.498C32.4743 4.24109 32.3562 3.98114 32.1435 3.77862C31.9338 3.57307 31.6739 3.4703 31.3638 3.4703C30.9473 3.4703 30.6239 3.62446 30.3935 3.93278C30.166 4.23807 30.0523 4.6809 30.0523 5.26126V5.41995C30.0523 5.9852 30.166 6.42048 30.3935 6.72577C30.6209 7.03106 30.9458 7.18371 31.3682 7.18371Z" fill="#9A9A9A"/>
<path d="M36.512 3.62446C36.388 3.6033 36.2536 3.59272 36.1089 3.59272C35.5713 3.59272 35.2065 3.82698 35.0145 4.2955V7.77768H34.1949V2.8718H34.9924L35.0057 3.43856C35.2744 3.00027 35.6555 2.78112 36.1487 2.78112C36.3082 2.78112 36.4293 2.80228 36.512 2.8446V3.62446Z" fill="#9A9A9A"/>
<path d="M39.1704 7.86836C38.5205 7.86836 37.9918 7.65072 37.5842 7.21545C37.1766 6.77716 36.9728 6.19226 36.9728 5.46076V5.3066C36.9728 4.81994 37.0629 4.38618 37.2431 4.00532C37.4262 3.62144 37.6802 3.32219 38.0051 3.10757C38.333 2.88994 38.6874 2.78112 39.0685 2.78112C39.6917 2.78112 40.1761 2.9912 40.5217 3.41136C40.8673 3.83151 41.04 4.43304 41.04 5.21592V5.56504H37.7925C37.8043 6.04868 37.9416 6.44012 38.2045 6.73937C38.4703 7.0356 38.8071 7.18371 39.2147 7.18371C39.5041 7.18371 39.7493 7.12326 39.9501 7.00235C40.151 6.88144 40.3267 6.72124 40.4774 6.52174L40.978 6.92074C40.5763 7.55248 39.9738 7.86836 39.1704 7.86836ZM39.0685 3.4703C38.7376 3.4703 38.46 3.59423 38.2355 3.84209C38.011 4.08693 37.8722 4.43152 37.819 4.87586H40.2204V4.81239C40.1968 4.38618 40.0845 4.05671 39.8837 3.82396C39.6828 3.58819 39.4111 3.4703 39.0685 3.4703Z" fill="#9A9A9A"/>
<path d="M44.9522 7.77768C44.905 7.68095 44.8666 7.50865 44.837 7.26079C44.456 7.66584 44.0011 7.86836 43.4724 7.86836C42.9998 7.86836 42.6114 7.73234 42.3072 7.46029C42.0059 7.18522 41.8553 6.83761 41.8553 6.41745C41.8553 5.90661 42.0443 5.51064 42.4224 5.22952C42.8034 4.94539 43.338 4.80332 44.0262 4.80332H44.8237V4.41792C44.8237 4.12472 44.7381 3.89197 44.5668 3.71967C44.3954 3.54436 44.1429 3.4567 43.8091 3.4567C43.5167 3.4567 43.2716 3.53227 43.0737 3.6834C42.8758 3.83454 42.7768 4.01741 42.7768 4.23203H41.9527C41.9527 3.98718 42.0369 3.75141 42.2053 3.52471C42.3766 3.29498 42.607 3.11362 42.8964 2.98062C43.1889 2.84762 43.5093 2.78112 43.8579 2.78112C44.4102 2.78112 44.8429 2.92319 45.156 3.20732C45.4691 3.48844 45.6316 3.87686 45.6434 4.37258V6.63055C45.6434 7.08094 45.6995 7.43913 45.8117 7.70513V7.77768H44.9522ZM43.592 7.13837C43.849 7.13837 44.0927 7.07036 44.3231 6.93434C44.5535 6.79832 44.7203 6.62149 44.8237 6.40385V5.39728H44.1813C43.177 5.39728 42.6749 5.69804 42.6749 6.29957C42.6749 6.56254 42.7606 6.76809 42.9319 6.9162C43.1032 7.06431 43.3232 7.13837 43.592 7.13837Z" fill="#9A9A9A"/>
<path d="M48.0403 1.68387V2.8718H48.9353V3.52017H48.0403V6.56254C48.0403 6.75902 48.0802 6.90713 48.1599 7.00688C48.2397 7.10361 48.3755 7.15197 48.5675 7.15197C48.662 7.15197 48.792 7.13384 48.9574 7.09756V7.77768C48.7418 7.83813 48.5321 7.86836 48.3283 7.86836C47.962 7.86836 47.6858 7.75501 47.4998 7.5283C47.3137 7.3016 47.2206 6.97968 47.2206 6.56254V3.52017H46.3478V2.8718H47.2206V1.68387H48.0403Z" fill="#9A9A9A"/>
<path d="M51.886 7.86836C51.2362 7.86836 50.7075 7.65072 50.2999 7.21545C49.8923 6.77716 49.6884 6.19226 49.6884 5.46076V5.3066C49.6884 4.81994 49.7785 4.38618 49.9587 4.00532C50.1418 3.62144 50.3959 3.32219 50.7208 3.10757C51.0486 2.88994 51.4031 2.78112 51.7841 2.78112C52.4073 2.78112 52.8917 2.9912 53.2373 3.41136C53.5829 3.83151 53.7557 4.43304 53.7557 5.21592V5.56504H50.5081C50.5199 6.04868 50.6573 6.44012 50.9201 6.73937C51.186 7.0356 51.5227 7.18371 51.9303 7.18371C52.2198 7.18371 52.4649 7.12326 52.6658 7.00235C52.8666 6.88144 53.0424 6.72124 53.193 6.52174L53.6937 6.92074C53.292 7.55248 52.6894 7.86836 51.886 7.86836ZM51.7841 3.4703C51.4533 3.4703 51.1756 3.59423 50.9512 3.84209C50.7267 4.08693 50.5878 4.43152 50.5347 4.87586H52.936V4.81239C52.9124 4.38618 52.8002 4.05671 52.5993 3.82396C52.3985 3.58819 52.1267 3.4703 51.7841 3.4703Z" fill="#9A9A9A"/>
<path d="M54.5089 5.28393C54.5089 4.53127 54.6831 3.92673 55.0317 3.4703C55.3802 3.01085 55.8366 2.78112 56.4007 2.78112C56.9619 2.78112 57.4064 2.9776 57.7343 3.37055V0.813327H58.554V7.77768H57.8008L57.7609 7.25172C57.433 7.66281 56.9767 7.86836 56.3918 7.86836C55.8366 7.86836 55.3832 7.63561 55.0317 7.17011C54.6831 6.70461 54.5089 6.09704 54.5089 5.34741V5.28393ZM55.3285 5.37915C55.3285 5.93533 55.4408 6.3706 55.6652 6.68496C55.8897 6.99933 56.1999 7.15651 56.5957 7.15651C57.1155 7.15651 57.4951 6.91771 57.7343 6.44012V4.18668C57.4891 3.72421 57.1125 3.49297 56.6045 3.49297C56.2028 3.49297 55.8897 3.65166 55.6652 3.96905C55.4408 4.28643 55.3285 4.75647 55.3285 5.37915Z" fill="#9A9A9A"/>
<path d="M7.07847 19.8475C7.07847 21.0621 6.80985 22.0104 6.27261 22.6924C5.73537 23.3698 4.98518 23.7085 4.02202 23.7085C3.17019 23.7085 2.49017 23.3932 1.98197 22.7625L1.88759 23.5683H0V12.8053H2.09813V16.6662C2.58213 16.1197 3.21859 15.8464 4.0075 15.8464C4.96582 15.8464 5.71601 16.1874 6.25809 16.8694C6.80501 17.5468 7.07847 18.5021 7.07847 19.7354V19.8475ZM4.98034 19.7004C4.98034 18.9342 4.8545 18.376 4.60282 18.0256C4.35114 17.6706 3.97604 17.4931 3.47752 17.4931C2.80961 17.4931 2.34981 17.757 2.09813 18.2849V21.277C2.35465 21.8095 2.81929 22.0758 3.49204 22.0758C4.16964 22.0758 4.61492 21.7535 4.82788 21.1088C4.92952 20.8005 4.98034 20.331 4.98034 19.7004Z" fill="#9A9A9A"/>
<path d="M11.1496 20.7024L12.6016 15.9865H14.8521L11.6941 24.7456L11.5198 25.145C11.0503 26.1353 10.276 26.6305 9.19664 26.6305C8.89172 26.6305 8.58196 26.5861 8.26736 26.4974V24.9628L8.5868 24.9698C8.98368 24.9698 9.27892 24.9114 9.47251 24.7946C9.67095 24.6778 9.82583 24.484 9.93715 24.213L10.184 23.5894L7.43246 15.9865H9.69031L11.1496 20.7024Z" fill="#9A9A9A"/>
<path d="M19.3716 23.5683V13.3658H23.0742C24.3568 13.3658 25.3296 13.6041 25.9927 14.0806C26.6558 14.5524 26.9873 15.2461 26.9873 16.1617C26.9873 16.6616 26.8542 17.103 26.588 17.4861C26.3218 17.8645 25.9516 18.1424 25.4773 18.3199C26.0193 18.4507 26.4453 18.7147 26.755 19.1117C27.0696 19.5088 27.2269 19.9947 27.2269 20.5693C27.2269 21.5503 26.9026 22.293 26.2541 22.7975C25.6055 23.3021 24.6811 23.559 23.4808 23.5683H19.3716ZM21.5496 19.1258V21.8796H23.4154C23.9285 21.8796 24.3278 21.7628 24.6133 21.5292C24.9037 21.291 25.0489 20.964 25.0489 20.5482C25.0489 19.6139 24.548 19.1398 23.5461 19.1258H21.5496ZM21.5496 17.6402H23.1613C24.26 17.6215 24.8093 17.1988 24.8093 16.3719C24.8093 15.9095 24.669 15.5778 24.3883 15.3769C24.1124 15.1714 23.6744 15.0686 23.0742 15.0686H21.5496V17.6402Z" fill="#9A9A9A"/>
<path d="M32.2708 23.7085C31.1189 23.7085 30.18 23.3675 29.454 22.6854C28.7328 22.0034 28.3722 21.0948 28.3722 19.9596V19.7634C28.3722 19.002 28.5247 18.3223 28.8296 17.7243C29.1345 17.1217 29.5653 16.6592 30.1219 16.3369C30.6833 16.0099 31.3222 15.8464 32.0385 15.8464C33.113 15.8464 33.9576 16.1734 34.5723 16.8274C35.1918 17.4814 35.5015 18.4087 35.5015 19.6093V20.4361H30.4994C30.5672 20.9313 30.7704 21.3284 31.1092 21.6273C31.4529 21.9263 31.8861 22.0758 32.4088 22.0758C33.2171 22.0758 33.8487 21.7932 34.3036 21.2279L35.3345 22.3421C35.02 22.7719 34.594 23.1082 34.0568 23.3511C33.5196 23.5894 32.9242 23.7085 32.2708 23.7085ZM32.0313 17.4861C31.615 17.4861 31.2762 17.6215 31.0149 17.8925C30.7583 18.1634 30.5938 18.5512 30.5212 19.0557H33.4397V18.8945C33.43 18.4461 33.3042 18.1004 33.0622 17.8575C32.8202 17.6099 32.4765 17.4861 32.0313 17.4861Z" fill="#9A9A9A"/>
<path d="M38.8394 23.5683H36.734V12.8053H38.8394V23.5683Z" fill="#9A9A9A"/>
<path d="M44.544 21.0387L46.9398 13.3658H49.3646L45.6838 23.5683H43.4114L39.7451 13.3658H42.1627L44.544 21.0387Z" fill="#9A9A9A"/>
<path d="M58.554 22.279C58.1619 22.7321 57.6077 23.0848 56.8914 23.3371C56.1751 23.5847 55.3813 23.7085 54.5101 23.7085C53.5954 23.7085 52.792 23.517 52.0998 23.1339C51.4126 22.7462 50.8802 22.1856 50.5026 21.4522C50.13 20.7187 49.9388 19.8569 49.9291 18.8665V18.1728C49.9291 17.1544 50.1058 16.2738 50.4591 15.5311C50.8172 14.7836 51.3303 14.2137 51.9982 13.8213C52.671 13.4242 53.4575 13.2257 54.3577 13.2257C55.6112 13.2257 56.5913 13.5153 57.298 14.0946C58.0046 14.6692 58.4233 15.5077 58.554 16.6102H56.434C56.3372 16.0262 56.1219 15.5988 55.7879 15.3279C55.4588 15.0569 55.0038 14.9214 54.423 14.9214C53.6825 14.9214 53.1187 15.19 52.7315 15.7273C52.3443 16.2645 52.1482 17.0633 52.1434 18.1237V18.7754C52.1434 19.8452 52.3539 20.6533 52.775 21.1999C53.1961 21.7465 53.8132 22.0197 54.6263 22.0197C55.4443 22.0197 56.0275 21.8516 56.376 21.5152V19.7564H54.394V18.2078H58.554V22.279Z" fill="#9A9A9A"/>
</svg>
